<svg width="123" height="124" viewBox="0 0 123 124" fill="none" xmlns="http://www.w3.org/2000/svg">
<g id="mdi:fish-food">
<path id="Vector" d="M35.1957 17C38.1881 17 41.058 18.1887 43.174 20.3047C45.29 22.4207 46.4787 25.2906 46.4787 28.2831C46.4787 31.2755 45.29 34.1454 43.174 36.2614C41.058 38.3774 38.1881 39.5661 35.1957 39.5661C32.2032 39.5661 29.3333 38.3774 27.2173 36.2614C25.1013 34.1454 23.9126 31.2755 23.9126 28.2831C23.9126 25.2906 25.1013 22.4207 27.2173 20.3047C29.3333 18.1887 32.2032 17 35.1957 17ZM22.5022 101.623V87.5191H19.3641C17.4425 87.5191 16.085 85.6327 16.6844 83.7992L22.1673 67.333L17.1251 73.9971C15.2388 76.4829 11.6952 76.9589 9.227 75.0901C6.75883 73.2214 6.2652 69.6778 8.13395 67.192L18.5179 53.4936C22.467 48.2752 28.655 45.2076 35.1957 45.2076C41.7363 45.2076 47.9244 48.2752 51.8734 53.4936L62.2574 67.192C64.1437 69.6778 63.6501 73.2214 61.1643 75.0901C58.6785 76.9589 55.1349 76.4829 53.2662 73.9971L48.2241 67.333L53.7069 83.7992C54.324 85.6327 52.9488 87.5191 51.0272 87.5191H47.8891V101.623C47.8891 104.743 45.368 107.264 42.2476 107.264C39.1271 107.264 36.606 104.743 36.606 101.623V87.5191H33.7853V101.623C33.7853 104.743 31.2642 107.264 28.1437 107.264C25.0233 107.264 22.5022 104.743 22.5022 101.623ZM91.6109 17C94.6034 17 97.4733 18.1887 99.5893 20.3047C101.705 22.4207 102.894 25.2906 102.894 28.2831C102.894 31.2755 101.705 34.1454 99.5893 36.2614C97.4733 38.3774 94.6034 39.5661 91.6109 39.5661C88.6185 39.5661 85.7486 38.3774 83.6326 36.2614C81.5166 34.1454 80.3279 31.2755 80.3279 28.2831C80.3279 25.2906 81.5166 22.4207 83.6326 20.3047C85.7486 18.1887 88.6185 17 91.6109 17ZM90.2006 84.6984V101.623C90.2006 104.743 87.6795 107.264 84.559 107.264C81.4386 107.264 78.9175 104.743 78.9175 101.623V69.9775L76.6433 73.5916C74.9861 76.2361 71.4954 77.0118 68.8685 75.3546C66.2417 73.6974 65.4484 70.2067 67.1056 67.5798L76.2201 53.1058C79.323 48.1871 84.7353 45.19 90.5355 45.19H92.704C98.5218 45.19 103.934 48.1695 107.019 53.1058L116.134 67.5975C117.791 70.2419 116.998 73.715 114.371 75.3722C111.744 77.0294 108.253 76.2361 106.596 73.6092L104.304 69.9775V101.623C104.304 104.743 101.783 107.264 98.6628 107.264C95.5424 107.264 93.0213 104.743 93.0213 101.623V84.6984H90.2006Z" fill="#771100"/>
</g>
</svg>
