<svg width="122" height="122" viewBox="0 0 122 122" fill="none" xmlns="http://www.w3.org/2000/svg">
<g id="mdi:chef-hat">
<path id="Vector" d="M63.5417 7.625C54.5442 7.625 46.6142 13.5725 44.0725 22.2142C41.3783 20.9942 38.5317 20.3333 35.5833 20.3333C30.1906 20.3333 25.0187 22.4756 21.2055 26.2888C17.3923 30.1021 15.25 35.2739 15.25 40.6667C15.262 45.1697 16.7648 49.5419 19.5237 53.1009C22.2825 56.6598 26.1422 59.205 30.5 60.3392V96.5833H96.5833V60.3392C105.53 58.0008 111.833 49.9183 111.833 40.6667C111.833 35.2739 109.691 30.1021 105.878 26.2888C102.065 22.4756 96.8927 20.3333 91.5 20.3333C88.5517 20.3333 85.705 20.9942 83.0108 22.2142C80.4692 13.5725 72.5392 7.625 63.5417 7.625ZM61 53.375H66.0833V88.9583H61V53.375ZM45.75 63.5417H50.8333V88.9583H45.75V63.5417ZM76.25 63.5417H81.3333V88.9583H76.25V63.5417ZM30.5 101.667V106.75C30.5 108.098 31.0356 109.391 31.9889 110.344C32.9422 111.298 34.2352 111.833 35.5833 111.833H91.5C92.8482 111.833 94.1412 111.298 95.0945 110.344C96.0478 109.391 96.5833 108.098 96.5833 106.75V101.667H30.5Z" fill="#771100"/>
</g>
</svg>
