<svg width="402" height="639" viewBox="0 0 402 639" fill="none" xmlns="http://www.w3.org/2000/svg">
<path opacity="0.1" d="M336.936 5.45518C295.384 -3.22843 266.774 -0.672559 245.507 8.19897C221.201 18.3384 204.673 37.3375 189.146 63.2156C186.05 96.8915 210.295 146.874 196.044 180.196C179.8 130.382 166.691 62.2733 122.68 39.3962C97.4887 26.3548 67.3838 17.8897 54.9299 22.3542C40.2112 27.6307 28.2721 40.7952 19.2533 58.6851C10.2358 76.5769 4.60401 98.5615 2.0313 117.773C-4.39425 165.827 15.396 243.731 37.826 307.823C54.6266 355.826 72.4127 396.405 80.2845 413.761C92.8363 412.851 105.422 412.502 118.005 412.715C121.717 383.951 131.953 358.845 137.63 328.449C138.042 358.386 138.171 385.301 142.554 413.792C162.563 415.221 183.345 418.039 204.4 422.57C219.199 425.743 233.816 429.713 248.187 434.462L284.592 374.155L266.23 440.902C292.16 450.861 317.73 463.811 342.007 480.264C365.477 464.417 377.766 443.052 395.164 424.205C390.351 449.421 377.264 472.662 356.129 490.344C368.687 499.794 380.83 510.253 392.412 521.805C480.286 430.668 542.28 335.25 556.903 231.417C561.463 199.047 560.334 169.501 554.376 147.012C548.421 124.522 538.083 109.935 525.269 103.449C514.941 98.2203 485.402 99.4474 460.231 104.933C414.326 112.72 368.689 160.106 349.011 194.915C352.569 176.586 368.798 126.365 394.624 105.204C392.657 84.1516 392.755 61.4893 388.037 44.1103C377.146 15.3068 362.067 10.7337 336.938 5.45742L336.936 5.45518ZM196.41 450.604C155.643 441.969 116.012 440.055 82.026 442.57L30.1866 593.715C48.0293 588.311 68.2739 586.966 89.3332 588.207C105.467 589.156 122.267 591.682 139.222 595.46C141.643 596.001 144.069 596.567 146.498 597.157C165.914 601.879 185.443 608.175 204.325 615.569C242.085 630.355 277.139 649.475 303.202 670.107C313.488 678.25 322.743 686.649 330.061 695.455L376.05 546.349C324.488 493.051 259.122 463.884 196.412 450.603L196.41 450.604ZM132.904 623.669C117.225 620.172 101.916 617.861 87.6392 617.021C61.5278 615.485 39.5315 619.097 24.3916 627.444C87.5815 717.581 200.083 750.902 315.202 726.949C310.964 717.842 301.202 705.34 285.284 692.738C262.362 674.59 229.293 656.349 193.798 642.449C173.832 634.631 153.064 628.172 132.905 623.671L132.904 623.669Z" fill="#771100"/>
</svg>
