<svg width="70" height="70" viewBox="0 0 70 70" fill="none" xmlns="http://www.w3.org/2000/svg">
    <defs>
        <clipPath id="clip0_3481_2677">
            <rect width="70" height="70" rx="35" fill="white"/>
        </clipPath>
    </defs>
    <g clip-path="url(#clip0_3481_2677)">
<path d="M77 -7H-7V77H77V-7Z" fill="white"/>
<path d="M77 -7H-7V77H77V-7Z" fill="#771100"/>
<mask id="mask0_3481_2677" style="mask-type:luminance" maskUnits="userSpaceOnUse" x="0" y="0" width="70" height="70">
<path d="M0.473999 0.667908H69.5261V69.72H0.473999V0.667908Z" fill="white"/>
</mask>
<g mask="url(#mask0_3481_2677)">
<mask id="mask1_3481_2677" style="mask-type:luminance" maskUnits="userSpaceOnUse" x="0" y="0" width="70" height="70">
<path d="M35 69.72C25.7819 69.72 17.1026 66.1325 10.589 59.605C4.06223 53.0921 0.473999 44.4121 0.473999 35.194C0.473999 25.9758 4.06223 17.2966 10.589 10.7829C17.1026 4.25614 25.7819 0.667908 35 0.667908C44.2182 0.667908 52.8974 4.25614 59.4111 10.7829C65.9379 17.3104 69.5261 25.9758 69.5261 35.194C69.5261 44.4121 65.9379 53.0921 59.4111 59.605C52.8974 66.1325 44.2182 69.72 35 69.72ZM35 2.73801C26.3339 2.73801 18.1789 6.11916 12.0517 12.2456C5.92452 18.3728 2.5441 26.5278 2.5441 35.194C2.5441 43.8601 5.92452 52.0151 12.0517 58.1423C18.1789 64.2695 26.3339 67.6499 35 67.6499C43.6662 67.6499 51.8212 64.2695 57.9484 58.1423C64.0756 52.0151 67.456 43.8601 67.456 35.194C67.456 26.5278 64.0756 18.3728 57.9484 12.2456C51.8212 6.11916 43.6662 2.73801 35 2.73801Z" fill="white"/>
</mask>
<g mask="url(#mask1_3481_2677)">
<path d="M0.473999 0.667908H69.5261V69.72H0.473999V0.667908Z" fill="#F4F2F2"/>
</g>
</g>
<mask id="mask2_3481_2677" style="mask-type:luminance" maskUnits="userSpaceOnUse" x="37" y="19" width="14" height="14">
<path d="M37.3334 19.0218H50.96V32.48H37.3334V19.0218Z" fill="white"/>
</mask>
<g mask="url(#mask2_3481_2677)">
<path d="M37.4778 32.3152C37.4778 32.3152 39.1257 25.7323 45.3922 22.3789C45.4089 22.3694 45.4177 22.3643 45.4177 22.3643C45.4089 22.3694 45.4009 22.3738 45.3922 22.3789C45.0072 22.5925 40.5097 25.2307 39.4341 32.0068C39.6091 31.9674 39.7834 31.9251 39.9577 31.8792C42.1904 31.2878 44.3064 30.1547 45.958 28.5294C47.3835 27.1258 48.0106 25.2452 48.3971 23.3472C48.5662 22.516 48.8798 21.6891 49.3107 20.9818C49.7365 20.2847 50.2411 19.6095 50.815 19.0247C35.5141 19.9143 37.4778 32.3152 37.4778 32.3152Z" fill="#F4F2F2"/>
</g>
<path d="M36.9994 32.3152C36.9994 32.3152 35.471 28.3733 31.3381 26.7845C31.3265 26.7801 31.3206 26.7779 31.3206 26.7779C31.3265 26.7801 31.3323 26.7823 31.3381 26.7845C31.5919 26.8873 34.5771 28.1706 35.7664 32.2758C35.6548 32.2649 35.544 32.2525 35.4331 32.2372C34.0069 32.0447 32.6105 31.5073 31.4643 30.6301C30.4741 29.8732 29.941 28.759 29.5553 27.6157C29.3869 27.1148 29.1287 26.6277 28.8072 26.2245C28.4907 25.8263 28.1261 25.4479 27.7258 25.1307C37.2531 24.4971 36.9994 32.3152 36.9994 32.3152Z" fill="#F4F2F2"/>
<path d="M49.8261 29.8477C50.7478 30.1518 51.2604 30.4894 51.2604 30.8452C51.2604 32.1847 43.976 33.2712 34.9898 33.2712C26.0043 33.2712 18.7192 32.1847 18.7192 30.8452C18.7192 30.4894 19.2325 30.1518 20.1534 29.8477C17.8164 30.364 16.431 31.0049 16.431 31.6998C16.431 33.4024 24.7399 34.782 34.9898 34.782C45.2397 34.782 53.5493 33.4024 53.5493 31.6998C53.5493 31.0049 52.1638 30.364 49.8261 29.8477Z" fill="#F4F2F2"/>
<path d="M19.9996 27.5873L22.9462 31.5955C23.3655 31.6662 23.8329 31.737 24.3571 31.8055C25.9139 32.0097 27.7084 32.1657 29.6363 32.2663L22.8456 25.1942C22.9331 24.4708 22.7318 23.7147 22.2258 23.1131C21.2575 21.9618 19.5381 21.8137 18.386 22.7821C17.2339 23.7511 17.0859 25.469 18.0542 26.6211C18.5603 27.222 19.2712 27.5494 19.9996 27.5873Z" fill="#F4F2F2"/>
<mask id="mask3_3481_2677" style="mask-type:luminance" maskUnits="userSpaceOnUse" x="16" y="33" width="38" height="18">
<path d="M16.3668 33.04H53.6068V50.9417H16.3668V33.04Z" fill="white"/>
</mask>
<g mask="url(#mask3_3481_2677)">
<path d="M18.5208 37.0978C18.5208 37.0978 21.42 37.9196 24.7034 38.1266C25.8022 46.6929 31.5517 49.1261 31.5517 49.1261C25.4435 47.573 20.5399 43.0033 18.5208 37.0978ZM52.4088 33.7086C51.4171 34.0973 50.0201 34.4436 48.2562 34.7367C44.7044 35.3259 39.9933 35.6511 34.9897 35.6511C29.9862 35.6511 25.2751 35.3259 21.724 34.7367C19.9602 34.4436 18.5624 34.0973 17.5714 33.7086C17.3206 33.6102 16.8124 33.4097 16.369 33.0801C16.7708 43.0142 24.9528 50.9454 34.9897 50.9454C45.0267 50.9454 53.2094 43.0142 53.6105 33.0801C53.1679 33.4097 52.6589 33.6102 52.4088 33.7086Z" fill="#F4F2F2"/>
</g>
</g>

</svg>
