<svg width="184" height="184" viewBox="0 0 184 184" fill="none" xmlns="http://www.w3.org/2000/svg">
<g clip-path="url(#clip0_3481_11858)">
<path d="M202.4 -18.4H-18.4V202.4H202.4V-18.4Z" fill="white"/>
<path d="M202.4 -18.4H-18.4V202.4H202.4V-18.4Z" fill="white"/>
<mask id="mask0_3481_11858" style="mask-type:luminance" maskUnits="userSpaceOnUse" x="1" y="1" width="182" height="183">
<path d="M1.24583 1.75568H182.754V183.264H1.24583V1.75568Z" fill="white"/>
</mask>
<g mask="url(#mask0_3481_11858)">
<mask id="mask1_3481_11858" style="mask-type:luminance" maskUnits="userSpaceOnUse" x="1" y="1" width="182" height="183">
<path d="M92 183.264C67.7695 183.264 44.9554 173.834 27.8338 156.676C10.6777 139.556 1.24583 116.74 1.24583 92.5098C1.24583 68.2794 10.6777 45.4653 27.8338 28.3437C44.9554 11.1876 67.7695 1.75568 92 1.75568C116.231 1.75568 139.045 11.1876 156.166 28.3437C173.322 45.5017 182.754 68.2794 182.754 92.5098C182.754 116.74 173.322 139.556 156.166 156.676C139.045 173.834 116.231 183.264 92 183.264ZM92 7.19709C69.2204 7.19709 47.7844 16.0847 31.6787 32.1885C15.5729 48.2943 6.68725 69.7303 6.68725 92.5098C6.68725 115.289 15.5729 136.725 31.6787 152.831C47.7844 168.937 69.2204 177.823 92 177.823C114.78 177.823 136.216 168.937 152.321 152.831C168.427 136.725 177.313 115.289 177.313 92.5098C177.313 69.7303 168.427 48.2943 152.321 32.1885C136.216 16.0847 114.78 7.19709 92 7.19709Z" fill="white"/>
</mask>
<g mask="url(#mask1_3481_11858)">
<path d="M1.24583 1.75568H182.754V183.264H1.24583V1.75568Z" fill="#771100"/>
</g>
</g>
<mask id="mask2_3481_11858" style="mask-type:luminance" maskUnits="userSpaceOnUse" x="98" y="50" width="36" height="36">
<path d="M98.1333 50.0787H133.952V85.376H98.1333V50.0787Z" fill="white"/>
</mask>
<g mask="url(#mask2_3481_11858)">
<path d="M98.6029 85.0195C98.6029 85.0195 102.935 67.7158 119.404 58.9011C119.45 58.8762 119.473 58.8647 119.473 58.8647C119.45 58.8762 119.429 58.8896 119.404 58.9011C118.394 59.4646 106.572 66.3991 103.745 84.2088C104.205 84.1053 104.663 83.9941 105.121 83.8733C110.99 82.3189 116.552 79.3404 120.894 75.0682C124.641 71.3805 126.289 66.4355 127.305 61.4483C127.748 59.2633 128.574 57.0898 129.707 55.2307C130.826 53.3983 132.152 51.6235 133.661 50.0863C93.4413 52.4247 98.6029 85.0195 98.6029 85.0195Z" fill="#771100"/>
</g>
<path d="M97.3456 85.0195C97.3456 85.0195 93.3282 74.658 82.4646 70.4835C82.4339 70.472 82.4186 70.4663 82.4186 70.4663C82.4339 70.472 82.4492 70.4778 82.4646 70.4835C83.1316 70.7518 90.9784 74.1252 94.1045 84.916C93.8112 84.8873 93.5199 84.8547 93.2286 84.8163C89.4796 84.3084 85.8092 82.8978 82.7962 80.592C80.1933 78.6025 78.7922 75.6738 77.7783 72.6685C77.3356 71.3518 76.6571 70.0714 75.8118 69.0096C74.98 67.9631 74.0217 66.9683 72.9694 66.1365C98.0126 64.4709 97.3456 85.0195 97.3456 85.0195Z" fill="#771100"/>
<mask id="mask3_3481_11858" style="mask-type:luminance" maskUnits="userSpaceOnUse" x="43" y="78" width="98" height="14">
<path d="M43.1787 78.5067H141V91.7547H43.1787V78.5067Z" fill="white"/>
</mask>
<g mask="url(#mask3_3481_11858)">
<path d="M131.062 78.5354C133.482 79.3347 134.832 80.2221 134.832 81.1555C134.832 84.6783 115.684 87.5342 92.0633 87.5342C68.4442 87.5342 49.2948 84.6783 49.2948 81.1555C49.2948 80.2221 50.6441 79.3347 53.0648 78.5354C46.9219 79.8905 43.2783 81.5752 43.2783 83.4018C43.2783 87.8772 65.1207 91.5036 92.0633 91.5036C119.006 91.5036 140.848 87.8772 140.848 83.4018C140.848 81.5752 137.207 79.8905 131.062 78.5354Z" fill="#771100"/>
</g>
<path d="M52.6585 72.5938L60.4057 83.1278C61.5078 83.3137 62.7363 83.4996 64.1144 83.6798C68.2065 84.2164 72.9234 84.6266 77.9911 84.8911L60.1412 66.3014C60.3693 64.4019 59.8422 62.4144 58.512 60.8331C55.9648 57.8067 51.4452 57.4176 48.4188 59.9629C45.3905 62.5083 45.0014 67.0259 47.5468 70.0542C48.8769 71.6335 50.7457 72.4941 52.6585 72.5938Z" fill="#771100"/>
<mask id="mask4_3481_11858" style="mask-type:luminance" maskUnits="userSpaceOnUse" x="43" y="86" width="98" height="48">
<path d="M43.1116 86.848H141V133.983H43.1116V86.848Z" fill="white"/>
</mask>
<g mask="url(#mask4_3481_11858)">
<path d="M48.7734 97.5909C48.7734 97.5909 56.3941 99.751 65.0248 100.295C67.9132 122.81 83.0262 129.208 83.0262 129.208C66.9703 125.126 54.0807 113.114 48.7734 97.5909ZM137.851 88.6823C135.244 89.7058 131.572 90.6143 126.933 91.3848C117.599 92.9353 105.215 93.7883 92.0633 93.7883C78.9111 93.7883 66.5275 92.9353 57.1933 91.3848C52.5569 90.6143 48.8827 89.7058 46.2779 88.6823C45.6186 88.4235 44.2827 87.8983 43.1173 87.0301C44.1734 113.143 65.6803 133.99 92.0633 133.99C118.446 133.99 139.955 113.143 141.009 87.0301C139.846 87.8983 138.508 88.4235 137.851 88.6823Z" fill="#771100"/>
</g>
</g>
<defs>
<clipPath id="clip0_3481_11858">
<rect width="184" height="184" rx="92" fill="white"/>
</clipPath>
</defs>
</svg>
