<svg width="118" height="116" viewBox="0 0 118 116" fill="none" xmlns="http://www.w3.org/2000/svg">
<g clip-path="url(#clip0_1040_8824)">
<path d="M107.096 2.90625L107.09 98.6981C108.805 101.52 110.579 102.605 112.067 102.598C113.543 102.591 115.299 101.493 116.98 98.7554L112.388 49.8287L112.334 49.2328L112.702 48.7578C117.979 41.9864 119.823 30.2878 118.318 20.3929C117.565 15.4452 115.989 10.9671 113.783 7.80137C111.933 5.14657 109.726 3.45306 107.097 2.90625H107.096ZM14.2893 2.90725L14.2854 19.6373L11.155 19.6333V2.90824H7.5898L7.5903 19.634H4.45549V2.90824H0.824219V28.6357C0.82397 31.4812 2.37692 33.059 4.82186 34.0345L5.83373 34.4388L5.8113 35.5279C5.31284 56.6052 4.82012 77.6823 4.3254 98.7594C6.03013 101.549 7.78121 102.605 9.2392 102.598C10.6972 102.591 12.4468 101.507 14.1298 98.7519C13.5529 77.6803 12.9759 56.6082 12.3999 35.5364L12.37 34.4398L13.3851 34.0395C15.9582 33.0162 17.6318 31.2795 17.6318 28.6372V2.90725H14.2893ZM59.8453 12.6262C49.2032 12.6262 38.997 16.8537 31.4719 24.3788C23.9468 31.9039 19.7193 42.1101 19.7193 52.7522C19.7193 63.3942 23.9468 73.6004 31.4719 81.1255C38.997 88.6506 49.2032 92.8781 59.8453 92.8781C70.4873 92.8781 80.6935 88.6506 88.2186 81.1255C95.7437 73.6004 99.9712 63.3942 99.9712 52.7522C99.9712 42.1101 95.7437 31.9039 88.2186 24.3788C80.6935 16.8537 70.4873 12.6262 59.8453 12.6262Z" fill="#771100"/>
</g>
<defs>
<clipPath id="clip0_1040_8824">
<rect width="118" height="115" fill="white" transform="translate(0 0.5)"/>
</clipPath>
</defs>
</svg>
