<svg width="64" height="63" viewBox="0 0 64 63" fill="none" xmlns="http://www.w3.org/2000/svg">
<g clip-path="url(#clip0_3832_10955)">
<path d="M58.0859 1.61865L58.0824 53.5736C59.0126 55.1041 59.9749 55.6927 60.7819 55.6888C61.5826 55.685 62.5347 55.0894 63.4467 53.6047L60.956 27.0681L60.9269 26.7449L61.1263 26.4873C63.9885 22.8147 64.9887 16.4697 64.1722 11.103C63.764 8.41946 62.9094 5.99063 61.7127 4.27363C60.7091 2.83374 59.512 1.91523 58.0862 1.61865H58.0859ZM7.75002 1.61919L7.74785 10.6931L6.05005 10.6909V1.61973H4.11637L4.11664 10.6913H2.4164V1.61973H0.446899V15.5736C0.446764 17.1169 1.28904 17.9727 2.61511 18.5018L3.16392 18.721L3.15176 19.3118C2.88141 30.7435 2.61417 42.1752 2.34584 53.6068C3.27044 55.1197 4.22018 55.6926 5.01096 55.6888C5.80173 55.685 6.75067 55.0971 7.6635 53.6028C7.35057 42.1741 7.03764 30.7451 6.72525 19.3163L6.70903 18.7216L7.2596 18.5045C8.65515 17.9495 9.56285 17.0076 9.56285 15.5744V1.61919H7.75002ZM32.4583 6.89049C26.6863 6.89049 21.1508 9.18339 17.0694 13.2648C12.988 17.3462 10.6951 22.8818 10.6951 28.6537C10.6951 34.4257 12.988 39.9612 17.0694 44.0426C21.1508 48.124 26.6863 50.4169 32.4583 50.4169C38.2303 50.4169 43.7658 48.124 47.8472 44.0426C51.9286 39.9612 54.2215 34.4257 54.2215 28.6537C54.2215 22.8818 51.9286 17.3462 47.8472 13.2648C43.7658 9.18339 38.2303 6.89049 32.4583 6.89049Z" fill="url(#paint0_linear_3832_10955)"/>
</g>
<defs>
<linearGradient id="paint0_linear_3832_10955" x1="4.0296" y1="10.2813" x2="13.93" y2="64.94" gradientUnits="userSpaceOnUse">
<stop stop-color="#B3261E"/>
<stop offset="0.567708" stop-color="#7E1B15"/>
<stop offset="1" stop-color="#3F0D0B"/>
</linearGradient>
<clipPath id="clip0_3832_10955">
<rect width="64" height="62.3729" fill="white" transform="translate(-0.00012207 0.313599)"/>
</clipPath>
</defs>
</svg>
