<svg width="74" height="75" viewBox="0 0 74 75" fill="none" xmlns="http://www.w3.org/2000/svg">
<path d="M21.5832 50.307C21.5832 52.0028 20.1957 53.3903 18.4999 53.3903C16.804 53.3903 15.4165 52.0028 15.4165 50.307C15.4165 48.6111 16.804 47.2236 18.4999 47.2236C20.1957 47.2236 21.5832 48.6111 21.5832 50.307ZM27.7499 50.307C26.054 50.307 24.6665 51.6945 24.6665 53.3903C24.6665 55.0861 26.054 56.4736 27.7499 56.4736C29.4457 56.4736 30.8332 55.0861 30.8332 53.3903C30.8332 51.6945 29.4457 50.307 27.7499 50.307ZM12.3332 56.4736C10.6374 56.4736 9.24988 57.8611 9.24988 59.557C9.24988 61.2528 10.6374 62.6403 12.3332 62.6403C14.029 62.6403 15.4165 61.2528 15.4165 59.557C15.4165 57.8611 14.029 56.4736 12.3332 56.4736ZM21.5832 59.557C19.8874 59.557 18.4999 60.9445 18.4999 62.6403C18.4999 64.3361 19.8874 65.7236 21.5832 65.7236C23.279 65.7236 24.6665 64.3361 24.6665 62.6403C24.6665 60.9445 23.279 59.557 21.5832 59.557ZM47.2674 9.36029L30.2165 30.7278L41.1315 41.6428L62.5299 24.6228C65.3049 22.2795 65.5207 18.0553 62.9307 15.4653L56.4249 8.95945C53.8349 6.36945 49.6107 6.58529 47.2674 9.36029ZM25.869 39.5153L32.3749 45.9903C33.6082 47.2236 35.5815 47.2236 36.784 45.9903L38.9424 43.832L28.0582 32.917L25.869 35.1061C25.2909 35.6943 24.967 36.486 24.967 37.3107C24.967 38.1354 25.2909 38.9271 25.869 39.5153Z" fill="url(#paint0_linear_3832_10953)"/>
<defs>
<linearGradient id="paint0_linear_3832_10953" x1="12.3567" y1="16.5269" x2="25.5239" y2="74.7099" gradientUnits="userSpaceOnUse">
<stop stop-color="#B3261E"/>
<stop offset="0.567708" stop-color="#7E1B15"/>
<stop offset="1" stop-color="#3F0D0B"/>
</linearGradient>
</defs>
</svg>
