<svg width="168" height="168" viewBox="0 0 168 168" fill="none" xmlns="http://www.w3.org/2000/svg">
    <defs>
        <clipPath id="clip0_3481_1422">
            <rect width="168" height="168" fill="white"/>
        </clipPath>
    </defs>
    <g clip-path="url(#clip0_3481_1422)">
<path d="M184.8 -16.8H-16.8V184.8H184.8V-16.8Z" fill="#771100"/>
<path d="M184.8 -16.8H-16.8V184.8H184.8V-16.8Z" fill="#771100"/>
<mask id="mask0_3481_1422" style="mask-type:luminance" maskUnits="userSpaceOnUse" x="16" y="16" width="136" height="136">
<path d="M16.8 16.8H151.2V151.2H16.8V16.8Z" fill="white"/>
</mask>
<g mask="url(#mask0_3481_1422)">
<mask id="mask1_3481_1422" style="mask-type:luminance" maskUnits="userSpaceOnUse" x="16" y="16" width="136" height="136">
<path d="M84 151.2C66.059 151.2 49.1645 144.217 36.4875 131.512C23.7825 118.835 16.8 101.941 16.8 84C16.8 66.059 23.7825 49.1645 36.4875 36.4875C49.1645 23.7825 66.059 16.8 84 16.8C101.941 16.8 118.836 23.7825 131.513 36.4875C144.218 49.1907 151.2 66.059 151.2 84C151.2 101.941 144.218 118.835 131.513 131.512C118.836 144.217 101.941 151.2 84 151.2ZM84 20.8285C67.1335 20.8285 51.2593 27.4085 39.3348 39.3347C27.4085 51.2592 20.8285 67.1335 20.8285 84C20.8285 100.866 27.4085 116.741 39.3348 128.665C51.2593 140.591 67.1335 147.171 84 147.171C100.867 147.171 116.741 140.591 128.665 128.665C140.592 116.741 147.172 100.866 147.172 84C147.172 67.1335 140.592 51.2592 128.665 39.3347C116.741 27.4085 100.867 20.8285 84 20.8285Z" fill="white"/>
</mask>
<g mask="url(#mask1_3481_1422)">
<path d="M16.8 16.8H151.2V151.2H16.8V16.8Z" fill="#F4F2F2"/>
</g>
</g>
<mask id="mask2_3481_1422" style="mask-type:luminance" maskUnits="userSpaceOnUse" x="29" y="85" width="7" height="7">
<path d="M29.7063 85.9583H35.714V91.966H29.7063V85.9583Z" fill="white"/>
</mask>
<g mask="url(#mask2_3481_1422)">
<mask id="mask3_3481_1422" style="mask-type:luminance" maskUnits="userSpaceOnUse" x="29" y="85" width="7" height="7">
<path d="M32.7093 85.9583C31.052 85.9583 29.7063 87.304 29.7063 88.963C29.7063 90.622 31.052 91.966 32.7093 91.966C34.3683 91.966 35.714 90.622 35.714 88.963C35.714 87.304 34.3683 85.9583 32.7093 85.9583Z" fill="white"/>
</mask>
<g mask="url(#mask3_3481_1422)">
<path d="M29.7063 85.9583H35.714V91.966H29.7063V85.9583Z" fill="#F4F2F2"/>
</g>
</g>
<mask id="mask4_3481_1422" style="mask-type:luminance" maskUnits="userSpaceOnUse" x="132" y="85" width="7" height="7">
<path d="M132.286 85.9583H138.294V91.966H132.286V85.9583Z" fill="white"/>
</mask>
<g mask="url(#mask4_3481_1422)">
<mask id="mask5_3481_1422" style="mask-type:luminance" maskUnits="userSpaceOnUse" x="132" y="85" width="7" height="7">
<path d="M135.291 85.9583C133.632 85.9583 132.286 87.304 132.286 88.963C132.286 90.622 133.632 91.966 135.291 91.966C136.948 91.966 138.294 90.622 138.294 88.963C138.294 87.304 136.948 85.9583 135.291 85.9583Z" fill="white"/>
</mask>
<g mask="url(#mask5_3481_1422)">
<path d="M132.286 85.9583H138.294V91.966H132.286V85.9583Z" fill="#F4F2F2"/>
</g>
</g>
<path d="M40.2996 104.297L41.8606 107.314C42.3173 108.196 42.4626 108.989 42.2946 109.694C42.1301 110.403 41.6646 110.958 40.8946 111.36C40.0826 111.78 39.3266 111.859 38.6266 111.598C37.9266 111.341 37.3473 110.772 36.8906 109.89L36.2396 108.637L34.2866 109.645L33.3766 107.881L40.2996 104.297ZM39.8306 106.775L37.6256 107.916L38.2346 109.085C38.4341 109.472 38.6843 109.722 38.9836 109.834C39.2811 109.946 39.6101 109.908 39.9706 109.722C40.3241 109.54 40.5411 109.295 40.6216 108.987C40.7003 108.679 40.6391 108.331 40.4396 107.944L39.8306 106.775Z" fill="#F4F2F2"/>
<path d="M40.4116 116.598L42.3716 119.265L41.0346 120.245L37.9056 115.975L44.1986 111.369L45.3676 112.972L40.4116 116.598Z" fill="#F4F2F2"/>
<path d="M47.4666 124.905L45.0306 122.518L43.6166 123.148L42.1606 121.72L50.0216 118.507L51.4776 119.928L48.3766 127.803L46.8646 126.319L47.4666 124.905ZM48.1106 123.428L49.3286 120.586L46.5006 121.853L48.1106 123.428Z" fill="#F4F2F2"/>
<path d="M56.4166 133.343L54.9606 132.377L54.6176 126.385L51.9646 130.389L50.4176 129.36L54.7296 122.864L56.1856 123.837L56.5286 129.829L59.1886 125.825L60.7286 126.847L56.4166 133.343Z" fill="#F4F2F2"/>
<path d="M68.4589 130.078C69.5596 130.466 70.4294 131.079 71.0699 131.919L69.8449 133.13C69.5404 132.766 69.1939 132.435 68.8019 132.136C68.4134 131.838 68.0704 131.637 67.7729 131.534C67.2304 131.343 66.8979 131.427 66.7719 131.786C66.6879 132.02 66.7526 132.253 66.9679 132.486C67.1866 132.72 67.4684 132.955 67.8149 133.193C68.1649 133.427 68.5026 133.683 68.8299 133.963C69.1606 134.239 69.4004 134.584 69.5509 134.999C69.7049 135.415 69.6944 135.87 69.5229 136.364C69.2744 137.072 68.8036 137.526 68.1089 137.722C67.4176 137.921 66.6459 137.872 65.7919 137.575C65.1794 137.354 64.6124 137.036 64.0909 136.616C63.5729 136.196 63.1546 135.727 62.8379 135.209L64.0769 134.026C64.3289 134.479 64.6719 134.899 65.1059 135.286C65.5399 135.669 65.9529 135.93 66.3449 136.07C66.6424 136.173 66.8944 136.201 67.1009 136.154C67.3109 136.103 67.4526 135.972 67.5279 135.762C67.6014 135.562 67.5646 135.359 67.4159 135.153C67.2706 134.948 67.0659 134.761 66.7999 134.593C66.5339 134.425 66.2539 134.227 65.9599 133.998C65.6659 133.765 65.3999 133.532 65.1619 133.298C64.9239 133.06 64.7594 132.764 64.6719 132.409C64.5826 132.05 64.6089 131.667 64.7489 131.261C64.9869 130.589 65.4436 130.146 66.1209 129.931C66.7964 129.717 67.5769 129.766 68.4589 130.078Z" fill="#F4F2F2"/>
<path d="M78.631 140.462L76.671 140.14L77.168 137.151L73.983 136.619L73.486 139.608L71.526 139.286L72.8 131.593L74.76 131.915L74.235 135.079L77.42 135.611L77.945 132.447L79.905 132.769L78.631 140.462Z" fill="#F4F2F2"/>
<path d="M85.5111 132.732C86.7186 132.696 87.7336 133.044 88.5561 133.775C89.3769 134.509 89.8039 135.44 89.8371 136.568C89.8686 137.708 89.4941 138.672 88.7101 139.459C87.9296 140.243 86.9391 140.655 85.7351 140.691C84.5311 140.725 83.5161 140.373 82.6901 139.634C81.8676 138.892 81.4406 137.951 81.4091 136.806C81.3759 135.672 81.7486 134.719 82.5291 133.943C83.3131 133.17 84.3071 132.766 85.5111 132.732ZM85.5811 134.391C84.9739 134.405 84.4611 134.642 84.0411 135.098C83.6211 135.557 83.4199 136.112 83.4391 136.764C83.4566 137.419 83.6911 137.965 84.1391 138.402C84.5871 138.836 85.1121 139.046 85.7141 139.032C86.3161 139.015 86.8201 138.773 87.2261 138.311C87.6321 137.849 87.8246 137.293 87.8071 136.638C87.7879 135.986 87.5621 135.445 87.1281 135.014C86.6976 134.58 86.1831 134.374 85.5811 134.391Z" fill="#F4F2F2"/>
<path d="M91.1564 132.403L94.4814 131.696C95.4509 131.491 96.2541 131.561 96.8894 131.906C97.5281 132.252 97.9394 132.849 98.1214 133.698C98.3121 134.594 98.1914 135.348 97.7574 135.959C97.3234 136.566 96.6199 136.972 95.6504 137.177L94.2644 137.471L94.7194 139.62L92.7804 140.033L91.1564 132.403ZM93.4174 133.516L93.9354 135.945L95.2234 135.672C95.6521 135.579 95.9601 135.404 96.1474 135.147C96.3329 134.886 96.3854 134.557 96.3014 134.16C96.2174 133.768 96.0371 133.495 95.7624 133.341C95.4859 133.183 95.1341 133.15 94.7054 133.243L93.4174 133.516Z" fill="#F4F2F2"/>
<path d="M105.438 127.75C105.959 127.498 106.524 127.358 107.132 127.33C107.742 127.302 108.311 127.383 108.84 127.568L108.399 129.29C108.029 129.119 107.646 129.028 107.251 129.017C106.853 129.009 106.498 129.08 106.187 129.234C105.63 129.5 105.259 129.92 105.074 130.494C104.892 131.068 104.937 131.641 105.214 132.209C105.497 132.803 105.922 133.207 106.488 133.42C107.051 133.63 107.611 133.602 108.168 133.336C108.462 133.193 108.731 132.971 108.98 132.671C109.226 132.369 109.415 132.031 109.547 131.656L111.115 132.265C110.919 132.836 110.619 133.363 110.219 133.847C109.816 134.334 109.358 134.701 108.84 134.953C107.784 135.463 106.736 135.541 105.697 135.191C104.661 134.838 103.896 134.147 103.401 133.119C102.911 132.108 102.86 131.089 103.247 130.067C103.635 129.042 104.365 128.268 105.438 127.75Z" fill="#F4F2F2"/>
<path d="M112.362 123.529C113.339 122.815 114.371 122.527 115.463 122.661C116.559 122.798 117.441 123.319 118.109 124.229C118.781 125.15 119.016 126.154 118.816 127.246C118.62 128.335 118.036 129.234 117.066 129.948C116.095 130.659 115.059 130.946 113.958 130.809C112.863 130.669 111.977 130.137 111.305 129.213C110.633 128.3 110.401 127.301 110.605 126.217C110.807 125.136 111.393 124.24 112.362 123.529ZM113.363 124.852C112.873 125.213 112.586 125.699 112.502 126.315C112.415 126.928 112.564 127.497 112.95 128.023C113.339 128.552 113.839 128.869 114.455 128.975C115.071 129.079 115.621 128.953 116.107 128.597C116.592 128.244 116.87 127.761 116.94 127.148C117.014 126.538 116.858 125.969 116.471 125.44C116.083 124.914 115.589 124.597 114.987 124.488C114.389 124.376 113.848 124.499 113.363 124.852Z" fill="#F4F2F2"/>
<path d="M119.272 117.352C120.095 116.467 121.054 115.984 122.149 115.903C123.25 115.819 124.216 116.161 125.047 116.925C125.882 117.701 126.309 118.644 126.328 119.753C126.346 120.859 125.947 121.857 125.131 122.742C124.319 123.63 123.36 124.111 122.254 124.184C121.148 124.254 120.175 123.903 119.335 123.127C118.501 122.363 118.079 121.432 118.068 120.334C118.06 119.234 118.46 118.24 119.272 117.352ZM120.511 118.458C120.097 118.906 119.908 119.442 119.944 120.061C119.978 120.677 120.235 121.208 120.714 121.65C121.196 122.095 121.749 122.308 122.373 122.294C122.998 122.277 123.514 122.046 123.92 121.601C124.33 121.159 124.512 120.632 124.466 120.019C124.419 119.409 124.155 118.882 123.675 118.437C123.194 117.995 122.648 117.778 122.037 117.786C121.427 117.792 120.917 118.016 120.511 118.458Z" fill="#F4F2F2"/>
<path d="M132.293 112.913L128.604 113.046L129.024 114.523L130.655 115.538L129.612 117.232L122.99 113.116L124.033 111.422L126.896 113.207L125.608 108.895L126.819 106.942L128.03 111.1L133.546 110.897L132.293 112.913Z" fill="#F4F2F2"/>
<path d="M46.2786 52.422L45.1726 54.053L40.4546 50.847L43.2616 55.313L42.4356 56.51L37.2626 55.53L41.9736 58.743L40.8466 60.395L33.5876 55.446L34.9666 53.416L40.6226 54.396L37.6476 49.489L39.0196 47.473L46.2786 52.422Z" fill="#F4F2F2"/>
<path d="M48.3603 40.6853L44.9653 43.8563L46.1553 45.1303L49.2143 42.2743L50.4183 43.5553L47.3593 46.4113L48.5633 47.7063L52.0633 44.4443L53.2603 45.7253L48.1293 50.5133L42.1373 44.1013L47.1633 39.4043L48.3603 40.6853Z" fill="#F4F2F2"/>
<path d="M62.0631 40.0542L60.3831 41.0692L54.1321 38.5422L56.9321 43.1622L55.1401 44.2472L50.5901 36.7432L52.2771 35.7212L58.5421 38.2552L55.7351 33.6282L57.5131 32.5502L62.0631 40.0542Z" fill="#F4F2F2"/>
<path d="M69.1435 28.0863L70.7815 32.9023C71.1543 34.0048 71.1105 34.9936 70.6485 35.8703C70.19 36.7436 69.3815 37.3788 68.2195 37.7743C67.047 38.1768 66.004 38.1716 65.0905 37.7603C64.1753 37.3508 63.533 36.5948 63.1585 35.4923L61.5205 30.6763L63.6345 29.9623L65.2725 34.7783C65.4633 35.3348 65.773 35.7216 66.2035 35.9403C66.6375 36.1608 67.1083 36.1836 67.6175 36.0103C68.125 35.8336 68.4785 35.5326 68.6745 35.1073C68.8705 34.6786 68.8723 34.1816 68.6815 33.6163L67.0435 28.8003L69.1435 28.0863Z" fill="#F4F2F2"/>
<path d="M88.3444 35.054L86.3704 35.068L86.3214 29.363L84.2494 34.207L82.7934 34.221L80.6514 29.405L80.6934 35.11L78.6984 35.124L78.6354 26.339L81.0854 26.318L83.5004 31.526L85.8454 26.283L88.2814 26.269L88.3444 35.054Z" fill="#F4F2F2"/>
<path d="M96.9753 35.1644L93.2373 34.3104L92.2503 35.7384L90.0103 35.2274L95.6663 27.5204L97.8993 28.0314L99.5443 37.4114L97.2273 36.8794L96.9753 35.1644ZM96.7163 33.3654L96.2193 29.9214L94.2453 32.7984L96.7163 33.3654Z" fill="#F4F2F2"/>
<path d="M107.929 31.4647C109.123 32.0072 110.036 32.779 110.666 33.7817L109.189 35.0277C108.881 34.5902 108.521 34.1842 108.111 33.8097C107.705 33.437 107.338 33.1762 107.012 33.0257C106.424 32.7597 106.041 32.821 105.864 33.2077C105.752 33.4597 105.805 33.7292 106.025 34.0127C106.244 34.298 106.536 34.5902 106.9 34.8877C107.268 35.187 107.623 35.509 107.964 35.8537C108.309 36.195 108.547 36.608 108.678 37.0927C108.808 37.574 108.752 38.0762 108.51 38.6047C108.16 39.3747 107.586 39.8385 106.788 39.9977C105.99 40.1552 105.129 40.0257 104.205 39.6057C103.542 39.3012 102.938 38.8882 102.392 38.3667C101.85 37.8435 101.43 37.2747 101.132 36.6587L102.63 35.4617C102.877 35.9937 103.222 36.4977 103.666 36.9737C104.114 37.4462 104.55 37.777 104.975 37.9677C105.301 38.1165 105.581 38.1725 105.815 38.1357C106.053 38.0972 106.223 37.9677 106.326 37.7437C106.428 37.525 106.41 37.294 106.27 37.0507C106.13 36.8092 105.92 36.58 105.64 36.3647C105.36 36.1512 105.063 35.8992 104.751 35.6087C104.443 35.32 104.165 35.033 103.918 34.7477C103.675 34.459 103.519 34.109 103.449 33.6977C103.379 33.2882 103.444 32.863 103.645 32.4237C103.976 31.6922 104.531 31.2407 105.311 31.0727C106.095 30.9012 106.967 31.0307 107.929 31.4647Z" fill="#F4F2F2"/>
<path d="M118.875 40.2741L116.705 38.7621L112.708 44.4951L110.874 43.2141L114.871 37.4811L112.729 35.9831L113.758 34.5131L119.904 38.8041L118.875 40.2741Z" fill="#F4F2F2"/>
<path d="M126.199 47.314L122.951 44.003L121.705 45.221L124.638 48.21L123.385 49.442L120.452 46.453L119.192 47.685L122.538 51.101L121.285 52.333L116.378 47.321L122.643 41.175L127.452 46.082L126.199 47.314Z" fill="#F4F2F2"/>
<path d="M125.685 58.6569L127.05 56.2209L127.015 56.1649L126.091 54.7439L124.019 56.0879L122.801 54.2189L130.158 49.4379L132.3 52.7279C132.933 53.7026 133.199 54.6004 133.098 55.4229C133 56.2436 132.541 56.9209 131.726 57.4529C130.592 58.1896 129.514 58.2579 128.492 57.6559L127.064 60.7779L125.685 58.6569ZM127.561 53.7849L128.485 55.2059C128.751 55.6119 129.055 55.8604 129.402 55.9549C129.752 56.0476 130.119 55.9689 130.508 55.7169C130.886 55.4684 131.099 55.1674 131.152 54.8139C131.202 54.4639 131.096 54.0859 130.83 53.6799L129.906 52.2589L127.561 53.7849Z" fill="#F4F2F2"/>
<mask id="mask6_3481_1422" style="mask-type:luminance" maskUnits="userSpaceOnUse" x="88" y="54" width="28" height="28">
<path d="M88.704 54.6963H115.136V81.088H88.704V54.6963Z" fill="white"/>
</mask>
<g mask="url(#mask6_3481_1422)">
<path d="M88.8755 80.7222C88.8755 80.7222 92.1025 67.8352 104.37 61.2692C104.403 61.25 104.421 61.2412 104.421 61.2412C104.403 61.25 104.387 61.2605 104.37 61.2692C103.617 61.6875 94.8115 66.8535 92.7062 80.1185C93.0475 80.0415 93.3905 79.9592 93.73 79.87C98.1032 78.7115 102.245 76.4925 105.478 73.311C108.271 70.5635 109.497 66.8815 110.253 63.1645C110.584 61.5387 111.198 59.9182 112.044 58.534C112.877 57.169 113.865 55.8477 114.989 54.7032C85.0307 56.4445 88.8755 80.7222 88.8755 80.7222Z" fill="#F4F2F2"/>
</g>
<path d="M87.9392 80.7222C87.9392 80.7222 84.9467 73.0047 76.8547 69.895C76.832 69.8862 76.8215 69.8827 76.8215 69.8827C76.832 69.8862 76.8442 69.8915 76.8547 69.895C77.3517 70.0962 83.1967 72.6075 85.5242 80.6452C85.3072 80.6242 85.0885 80.5997 84.8715 80.5717C82.0802 80.1937 79.3467 79.142 77.1015 77.4252C75.1642 75.943 74.1195 73.7607 73.3652 71.5225C73.0345 70.5425 72.5287 69.5887 71.9005 68.7977C71.2792 68.019 70.5652 67.2787 69.783 66.6575C88.4362 65.4167 87.9392 80.7222 87.9392 80.7222Z" fill="#F4F2F2"/>
<mask id="mask7_3481_1422" style="mask-type:luminance" maskUnits="userSpaceOnUse" x="47" y="75" width="74" height="11">
<path d="M47.5422 75.712H120.454V85.568H47.5422V75.712Z" fill="white"/>
</mask>
<g mask="url(#mask7_3481_1422)">
<path d="M113.053 75.8922C114.856 76.489 115.86 77.1487 115.86 77.8452C115.86 80.4685 101.598 82.5947 84.0052 82.5947C66.4107 82.5947 52.1482 80.4685 52.1482 77.8452C52.1482 77.1487 53.1527 76.489 54.957 75.8922C50.3807 76.902 47.6682 78.1585 47.6682 79.5182C47.6682 82.852 63.9362 85.5522 84.0052 85.5522C104.072 85.5522 120.342 82.852 120.342 79.5182C120.342 78.1585 117.63 76.902 113.053 75.8922Z" fill="#F4F2F2"/>
</g>
<path d="M54.6543 71.4665L60.4241 79.3135C61.2448 79.4535 62.1601 79.59 63.1873 79.7248C66.2341 80.1255 69.7481 80.43 73.5228 80.6278L60.2263 66.7818C60.3978 65.366 60.0041 63.8855 59.0136 62.7078C57.1166 60.4538 53.7513 60.1633 51.4956 62.0603C49.2398 63.9555 48.9493 67.3208 50.8463 69.5748C51.8386 70.7525 53.2298 71.393 54.6543 71.4665Z" fill="#F4F2F2"/>
<mask id="mask8_3481_1422" style="mask-type:luminance" maskUnits="userSpaceOnUse" x="47" y="81" width="74" height="37">
<path d="M47.5422 81.984H120.454V117.192H47.5422V81.984Z" fill="white"/>
</mask>
<g mask="url(#mask8_3481_1422)">
<path d="M51.7597 90.0865C51.7597 90.0865 57.4367 91.6947 63.8645 92.1007C66.0152 108.873 77.273 113.636 77.273 113.636C65.3135 110.596 55.713 101.649 51.7597 90.0865ZM118.109 83.4505C116.167 84.2135 113.431 84.8907 109.979 85.4647C103.026 86.618 93.8017 87.255 84.0052 87.255C74.2087 87.255 64.9845 86.618 58.0317 85.4647C54.5772 84.8907 51.842 84.2135 49.9012 83.4505C49.4095 83.258 48.4137 82.866 47.5475 82.2202C48.3332 101.671 64.3545 117.197 84.0052 117.197C103.656 117.197 119.675 101.671 120.463 82.2202C119.595 82.866 118.599 83.258 118.109 83.4505Z" fill="#F4F2F2"/>
</g>
<mask id="mask9_3481_1422" style="mask-type:luminance" maskUnits="userSpaceOnUse" x="60" y="131" width="2" height="3">
<path d="M60.0601 131.411H61.9413V133.292H60.0601V131.411Z" fill="white"/>
</mask>
<g mask="url(#mask9_3481_1422)">
<mask id="mask10_3481_1422" style="mask-type:luminance" maskUnits="userSpaceOnUse" x="60" y="131" width="2" height="3">
<path d="M60.9998 131.411C60.4818 131.411 60.0601 131.833 60.0601 132.351C60.0601 132.871 60.4818 133.292 60.9998 133.292C61.5196 133.292 61.9413 132.871 61.9413 132.351C61.9413 131.833 61.5196 131.411 60.9998 131.411Z" fill="white"/>
</mask>
<g mask="url(#mask10_3481_1422)">
<path d="M60.0601 131.411H61.9413V133.292H60.0601V131.411Z" fill="#E6E6E6"/>
</g>
</g>
<mask id="mask11_3481_1422" style="mask-type:luminance" maskUnits="userSpaceOnUse" x="99" y="133" width="3" height="3">
<path d="M99.7657 133.292H101.647V135.172H99.7657V133.292Z" fill="white"/>
</mask>
<g mask="url(#mask11_3481_1422)">
<mask id="mask12_3481_1422" style="mask-type:luminance" maskUnits="userSpaceOnUse" x="99" y="133" width="3" height="3">
<path d="M100.705 133.292C100.187 133.292 99.7657 133.712 99.7657 134.232C99.7657 134.75 100.187 135.172 100.705 135.172C101.225 135.172 101.647 134.75 101.647 134.232C101.647 133.712 101.225 133.292 100.705 133.292Z" fill="white"/>
</mask>
<g mask="url(#mask12_3481_1422)">
<path d="M99.7657 133.292H101.647V135.172H99.7657V133.292Z" fill="#E6E6E6"/>
</g>
</g>
</g>

</svg>
