<svg width="269" height="269" viewBox="0 0 269 269" fill="none" xmlns="http://www.w3.org/2000/svg">
<g clip-path="url(#clip0_3481_1746)">
    <defs>
        <clipPath id="clip0_3481_1746">
            <rect width="269" height="269" rx="134.5" fill="white"/>
        </clipPath>
    </defs>
<path d="M295.9 -26.9H-26.9V295.9H295.9V-26.9Z" fill="white"/>
<path d="M295.9 -26.9H-26.9V295.9H295.9V-26.9Z" fill="white"/>
<mask id="mask0_3481_1746" style="mask-type:luminance" maskUnits="userSpaceOnUse" x="26" y="26" width="217" height="217">
<path d="M26.9 26.9H242.1V242.1H26.9V26.9Z" fill="white"/>
</mask>
<g mask="url(#mask0_3481_1746)">
<mask id="mask1_3481_1746" style="mask-type:luminance" maskUnits="userSpaceOnUse" x="26" y="26" width="217" height="217">
<path d="M134.5 242.1C105.773 242.1 78.7218 230.92 58.4235 210.577C38.0803 190.278 26.9 163.227 26.9 134.5C26.9 105.773 38.0803 78.7218 58.4235 58.4235C78.7218 38.0803 105.773 26.9 134.5 26.9C163.227 26.9 190.278 38.0803 210.577 58.4235C230.92 78.7638 242.1 105.773 242.1 134.5C242.1 163.227 230.92 190.278 210.577 210.577C190.278 230.92 163.227 242.1 134.5 242.1ZM134.5 33.3504C107.494 33.3504 82.0758 43.8863 62.9825 62.9825C43.8863 82.0758 33.3504 107.494 33.3504 134.5C33.3504 161.507 43.8863 186.924 62.9825 206.018C82.0758 225.114 107.494 235.65 134.5 235.65C161.507 235.65 186.924 225.114 206.018 206.018C225.114 186.924 235.65 161.507 235.65 134.5C235.65 107.494 225.114 82.0758 206.018 62.9825C186.924 43.8863 161.507 33.3504 134.5 33.3504Z" fill="white"/>
</mask>
<g mask="url(#mask1_3481_1746)">
<path d="M26.9 26.9H242.1V242.1H26.9V26.9Z" fill="#771100"/>
</g>
</g>
<mask id="mask2_3481_1746" style="mask-type:luminance" maskUnits="userSpaceOnUse" x="47" y="137" width="11" height="11">
<path d="M47.5654 137.635H57.1849V147.255H47.5654V137.635Z" fill="white"/>
</mask>
<g mask="url(#mask2_3481_1746)">
<mask id="mask3_3481_1746" style="mask-type:luminance" maskUnits="userSpaceOnUse" x="47" y="137" width="11" height="11">
<path d="M52.3737 137.635C49.7202 137.635 47.5654 139.79 47.5654 142.447C47.5654 145.103 49.7202 147.255 52.3737 147.255C55.0301 147.255 57.1849 145.103 57.1849 142.447C57.1849 139.79 55.0301 137.635 52.3737 137.635Z" fill="white"/>
</mask>
<g mask="url(#mask3_3481_1746)">
<path d="M47.5654 137.635H57.1849V147.255H47.5654V137.635Z" fill="#771100"/>
</g>
</g>
<mask id="mask4_3481_1746" style="mask-type:luminance" maskUnits="userSpaceOnUse" x="211" y="137" width="11" height="11">
<path d="M211.815 137.635H221.435V147.255H211.815V137.635Z" fill="white"/>
</mask>
<g mask="url(#mask4_3481_1746)">
<mask id="mask5_3481_1746" style="mask-type:luminance" maskUnits="userSpaceOnUse" x="211" y="137" width="11" height="11">
<path d="M216.626 137.635C213.97 137.635 211.815 139.79 211.815 142.447C211.815 145.103 213.97 147.255 216.626 147.255C219.28 147.255 221.435 145.103 221.435 142.447C221.435 139.79 219.28 137.635 216.626 137.635Z" fill="white"/>
</mask>
<g mask="url(#mask5_3481_1746)">
<path d="M211.815 137.635H221.435V147.255H211.815V137.635Z" fill="#771100"/>
</g>
</g>
<path d="M64.5274 166.999L67.0269 171.83C67.7582 173.242 67.9908 174.512 67.7218 175.641C67.4584 176.776 66.713 177.664 65.4801 178.309C64.18 178.981 62.9695 179.107 61.8486 178.69C60.7278 178.278 59.8003 177.367 59.069 175.955L58.0266 173.949L54.8995 175.563L53.4424 172.738L64.5274 166.999ZM63.7765 170.967L60.2458 172.794L61.221 174.666C61.5404 175.285 61.9411 175.686 62.4203 175.865C62.8966 176.045 63.4234 175.983 64.0006 175.686C64.5667 175.394 64.9141 175.002 65.043 174.509C65.1691 174.016 65.071 173.458 64.7516 172.839L63.7765 170.967Z" fill="#771100"/>
<path d="M64.7066 186.695L67.8449 190.966L65.7042 192.535L60.694 185.698L70.7703 178.323L72.6421 180.889L64.7066 186.695Z" fill="#771100"/>
<path d="M76.0031 199.997L72.1026 196.175L69.8385 197.184L67.5071 194.898L80.0941 189.753L82.4254 192.028L77.4601 204.638L75.0391 202.261L76.0031 199.997ZM77.0342 197.632L78.9845 193.082L74.4563 195.111L77.0342 197.632Z" fill="#771100"/>
<path d="M90.3337 213.507L88.0024 211.96L87.4531 202.366L83.2052 208.777L80.7281 207.13L87.6325 196.728L89.9638 198.286L90.513 207.881L94.7722 201.469L97.238 203.106L90.3337 213.507Z" fill="#771100"/>
<path d="M109.616 208.279C111.378 208.901 112.771 209.882 113.796 211.227L111.835 213.166C111.347 212.583 110.793 212.054 110.165 211.574C109.543 211.098 108.994 210.776 108.517 210.611C107.649 210.305 107.116 210.44 106.914 211.014C106.78 211.39 106.884 211.762 107.228 212.135C107.579 212.51 108.03 212.886 108.584 213.267C109.145 213.642 109.686 214.052 110.21 214.5C110.739 214.943 111.123 215.495 111.364 216.159C111.611 216.826 111.594 217.554 111.319 218.344C110.921 219.479 110.168 220.205 109.055 220.519C107.948 220.838 106.713 220.76 105.345 220.283C104.365 219.93 103.457 219.42 102.622 218.748C101.792 218.075 101.123 217.324 100.615 216.495L102.599 214.601C103.003 215.326 103.552 215.999 104.247 216.618C104.942 217.232 105.603 217.649 106.231 217.874C106.707 218.039 107.111 218.084 107.441 218.008C107.777 217.927 108.004 217.717 108.125 217.38C108.243 217.061 108.184 216.736 107.946 216.405C107.713 216.077 107.385 215.778 106.959 215.509C106.533 215.24 106.085 214.923 105.614 214.556C105.144 214.183 104.718 213.811 104.337 213.435C103.955 213.054 103.692 212.58 103.552 212.012C103.409 211.437 103.451 210.824 103.675 210.173C104.056 209.097 104.788 208.389 105.872 208.044C106.954 207.702 108.203 207.78 109.616 208.279Z" fill="#771100"/>
<path d="M125.903 224.907L122.765 224.391L123.561 219.605L118.461 218.753L117.665 223.539L114.527 223.024L116.567 210.706L119.705 211.221L118.864 216.288L123.964 217.139L124.805 212.073L127.943 212.589L125.903 224.907Z" fill="#771100"/>
<path d="M136.92 212.53C138.853 212.471 140.478 213.029 141.795 214.2C143.109 215.374 143.793 216.865 143.846 218.672C143.897 220.496 143.297 222.04 142.042 223.301C140.792 224.556 139.206 225.215 137.278 225.274C135.351 225.327 133.725 224.764 132.403 223.581C131.086 222.393 130.402 220.886 130.352 219.053C130.298 217.237 130.895 215.71 132.145 214.469C133.4 213.23 134.992 212.583 136.92 212.53ZM137.032 215.186C136.059 215.209 135.238 215.587 134.566 216.318C133.893 217.052 133.571 217.941 133.602 218.986C133.63 220.034 134.006 220.908 134.723 221.609C135.44 222.304 136.281 222.64 137.245 222.617C138.209 222.589 139.016 222.203 139.666 221.463C140.316 220.723 140.624 219.832 140.596 218.784C140.565 217.739 140.204 216.873 139.509 216.184C138.819 215.489 137.996 215.158 137.032 215.186Z" fill="#771100"/>
<path d="M145.959 212.002L151.283 210.87C152.835 210.542 154.121 210.654 155.138 211.206C156.161 211.761 156.82 212.716 157.111 214.075C157.416 215.51 157.223 216.718 156.528 217.696C155.833 218.668 154.707 219.318 153.154 219.646L150.935 220.117L151.664 223.557L148.559 224.219L145.959 212.002ZM149.579 213.784L150.408 217.673L152.471 217.236C153.157 217.087 153.65 216.807 153.95 216.395C154.247 215.978 154.331 215.451 154.197 214.815C154.062 214.187 153.774 213.75 153.334 213.504C152.891 213.251 152.328 213.198 151.641 213.347L149.579 213.784Z" fill="#771100"/>
<path d="M168.826 204.553C169.661 204.149 170.566 203.925 171.538 203.88C172.516 203.835 173.427 203.964 174.273 204.261L173.567 207.018C172.976 206.744 172.362 206.598 171.729 206.581C171.093 206.567 170.524 206.682 170.025 206.929C169.134 207.355 168.54 208.027 168.243 208.946C167.952 209.865 168.024 210.782 168.467 211.692C168.921 212.642 169.602 213.289 170.507 213.631C171.409 213.968 172.306 213.923 173.197 213.497C173.668 213.267 174.099 212.911 174.497 212.432C174.892 211.947 175.195 211.406 175.405 210.807L177.916 211.782C177.602 212.695 177.123 213.539 176.481 214.315C175.837 215.094 175.102 215.682 174.273 216.086C172.583 216.901 170.905 217.027 169.241 216.467C167.582 215.901 166.357 214.794 165.564 213.149C164.78 211.53 164.698 209.899 165.318 208.262C165.94 206.62 167.108 205.382 168.826 204.553Z" fill="#771100"/>
<path d="M179.913 197.794C181.477 196.651 183.13 196.188 184.879 196.404C186.633 196.623 188.045 197.458 189.115 198.915C190.191 200.389 190.567 201.997 190.247 203.746C189.934 205.488 188.998 206.929 187.445 208.072C185.89 209.21 184.231 209.669 182.469 209.451C180.715 209.226 179.297 208.375 178.221 206.895C177.145 205.432 176.772 203.832 177.1 202.098C177.422 200.366 178.361 198.932 179.913 197.794ZM181.516 199.912C180.732 200.49 180.272 201.269 180.138 202.255C179.997 203.236 180.236 204.146 180.855 204.99C181.477 205.836 182.278 206.343 183.265 206.514C184.251 206.679 185.131 206.478 185.91 205.909C186.686 205.343 187.132 204.569 187.244 203.589C187.361 202.611 187.112 201.7 186.493 200.854C185.871 200.01 185.08 199.503 184.117 199.33C183.158 199.15 182.292 199.346 181.516 199.912Z" fill="#771100"/>
<path d="M190.978 187.904C192.295 186.486 193.83 185.713 195.584 185.584C197.347 185.449 198.894 185.996 200.225 187.22C201.561 188.461 202.245 189.972 202.276 191.748C202.304 193.519 201.665 195.116 200.359 196.534C199.059 197.955 197.523 198.725 195.752 198.843C193.982 198.955 192.424 198.392 191.079 197.151C189.742 195.926 189.067 194.435 189.05 192.679C189.036 190.916 189.678 189.324 190.978 187.904ZM192.962 189.675C192.298 190.392 191.995 191.249 192.054 192.241C192.107 193.228 192.519 194.077 193.287 194.786C194.057 195.497 194.943 195.839 195.943 195.817C196.943 195.789 197.77 195.419 198.42 194.707C199.076 193.998 199.367 193.155 199.294 192.174C199.219 191.196 198.796 190.353 198.028 189.641C197.257 188.932 196.383 188.585 195.405 188.599C194.427 188.607 193.612 188.966 192.962 189.675Z" fill="#771100"/>
<path d="M211.827 180.796L205.92 181.008L206.592 183.373L209.204 184.999L207.534 187.711L196.931 181.121L198.601 178.408L203.185 181.266L201.123 174.362L203.062 171.235L205.001 177.893L213.833 177.568L211.827 180.796Z" fill="#771100"/>
<path d="M74.0445 83.9376L72.2735 86.5491L64.7191 81.4157L69.2137 88.5666L67.8911 90.4833L59.6081 88.9141L67.1513 94.0587L65.3468 96.7039L53.7238 88.7796L55.9318 85.5292L64.9881 87.0983L60.2246 79.2413L62.4214 76.0133L74.0445 83.9376Z" fill="#771100"/>
<path d="M77.3776 65.1449L71.9416 70.2222L73.847 72.2622L78.745 67.6892L80.6728 69.7403L75.7748 74.3133L77.7026 76.3868L83.3068 71.1637L85.2234 73.2149L77.0077 80.8814L67.4134 70.6145L75.461 63.0938L77.3776 65.1449Z" fill="#771100"/>
<path d="M99.3185 64.1345L96.6285 65.7597L86.6194 61.7135L91.1027 69.111L88.2334 70.8483L80.948 58.8329L83.6492 57.1965L93.6807 61.2539L89.1861 53.8452L92.033 52.1191L99.3185 64.1345Z" fill="#771100"/>
<path d="M110.656 44.9715L113.278 52.6828C113.875 54.4481 113.805 56.0313 113.065 57.4352C112.331 58.8334 111.037 59.8506 109.176 60.4838C107.299 61.1283 105.629 61.1199 104.166 60.4614C102.7 59.8057 101.672 58.5952 101.072 56.8299L98.4497 49.1186L101.835 47.9753L104.457 55.6867C104.763 56.5777 105.259 57.197 105.948 57.5472C106.643 57.9003 107.397 57.9367 108.212 57.6593C109.025 57.3763 109.591 56.8944 109.905 56.2135C110.218 55.5269 110.221 54.7312 109.916 53.8261L107.293 46.1147L110.656 44.9715Z" fill="#771100"/>
<path d="M141.4 56.128L138.239 56.1505L138.161 47.0157L134.843 54.7718L132.512 54.7943L129.082 47.0829L129.149 56.2177L125.955 56.2401L125.854 42.1737L129.777 42.14L133.644 50.479L137.398 42.084L141.299 42.0616L141.4 56.128Z" fill="#771100"/>
<path d="M155.22 56.3049L149.234 54.9375L147.654 57.224L144.067 56.4058L153.124 44.0654L156.699 44.8836L159.333 59.9028L155.623 59.051L155.22 56.3049ZM154.805 53.4244L154.009 47.9099L150.848 52.5165L154.805 53.4244Z" fill="#771100"/>
<path d="M172.759 50.381C174.67 51.2496 176.133 52.4854 177.141 54.091L174.777 56.086C174.283 55.3855 173.706 54.7354 173.05 54.1358C172.4 53.5389 171.812 53.1214 171.291 52.8804C170.349 52.4545 169.736 52.5526 169.453 53.1719C169.273 53.5754 169.357 54.0069 169.71 54.4608C170.061 54.9176 170.529 55.3855 171.111 55.8619C171.7 56.341 172.269 56.8566 172.815 57.4086C173.367 57.955 173.748 58.6163 173.958 59.3925C174.166 60.1631 174.076 60.9673 173.689 61.8135C173.129 63.0464 172.21 63.789 170.932 64.044C169.654 64.2961 168.276 64.0888 166.796 63.4163C165.734 62.9287 164.767 62.2674 163.893 61.4324C163.025 60.5946 162.352 59.6839 161.876 58.6976L164.274 56.781C164.669 57.6328 165.221 58.4398 165.933 59.202C166.65 59.9585 167.348 60.4881 168.029 60.7935C168.55 61.0317 168.999 61.1214 169.374 61.0625C169.755 61.0009 170.027 60.7935 170.192 60.4349C170.355 60.0846 170.327 59.7147 170.103 59.3252C169.878 58.9386 169.542 58.5715 169.094 58.2268C168.646 57.885 168.169 57.4815 167.67 57.0163C167.177 56.554 166.732 56.0944 166.337 55.6377C165.947 55.1754 165.698 54.6149 165.586 53.9564C165.474 53.3008 165.577 52.6199 165.9 51.9165C166.429 50.7453 167.317 50.0223 168.567 49.7533C169.822 49.4787 171.218 49.6861 172.759 50.381Z" fill="#771100"/>
<path d="M190.285 64.4864L186.811 62.0654L180.411 71.245L177.474 69.1939L183.874 60.0143L180.444 57.6157L182.092 55.262L191.933 62.1327L190.285 64.4864Z" fill="#771100"/>
<path d="M202.012 75.7588L196.811 70.4572L194.816 72.4075L199.512 77.1935L197.506 79.1661L192.81 74.3802L190.792 76.3528L196.15 81.8225L194.144 83.7952L186.286 75.77L196.318 65.9291L204.018 73.7861L202.012 75.7588Z" fill="#771100"/>
<path d="M201.189 93.9208L203.374 90.0203L203.318 89.9306L201.839 87.6553L198.521 89.8073L196.571 86.8147L208.351 79.1594L211.78 84.4273C212.795 85.9881 213.221 87.4256 213.058 88.7425C212.901 90.0567 212.167 91.1411 210.861 91.993C209.046 93.1726 207.319 93.2819 205.683 92.318L203.397 97.3169L201.189 93.9208ZM204.192 86.1198L205.672 88.3951C206.098 89.0452 206.585 89.4431 207.14 89.5944C207.701 89.7429 208.289 89.6168 208.911 89.2133C209.516 88.8154 209.858 88.3334 209.942 87.7674C210.023 87.207 209.853 86.6018 209.427 85.9517L207.947 83.6764L204.192 86.1198Z" fill="#771100"/>
<mask id="mask6_3481_1746" style="mask-type:luminance" maskUnits="userSpaceOnUse" x="142" y="87" width="43" height="43">
<path d="M142.032 87.5791H184.355V129.837H142.032V87.5791Z" fill="white"/>
</mask>
<g mask="url(#mask6_3481_1746)">
<path d="M142.307 129.252C142.307 129.252 147.474 108.617 167.116 98.1037C167.169 98.0729 167.197 98.0589 167.197 98.0589C167.169 98.0729 167.144 98.0897 167.116 98.1037C165.911 98.7734 151.811 107.045 148.44 128.285C148.987 128.162 149.536 128.03 150.08 127.887C157.082 126.032 163.714 122.479 168.89 117.385C173.362 112.986 175.326 107.09 176.537 101.138C177.066 98.5353 178.05 95.9405 179.403 93.7241C180.737 91.5385 182.32 89.4229 184.119 87.5903C136.15 90.3784 142.307 129.252 142.307 129.252Z" fill="#771100"/>
</g>
<path d="M140.808 129.252C140.808 129.252 136.016 116.894 123.059 111.915C123.023 111.901 123.006 111.896 123.006 111.896C123.023 111.901 123.042 111.91 123.059 111.915C123.855 112.237 133.214 116.258 136.941 129.128C136.593 129.095 136.243 129.056 135.895 129.011C131.426 128.405 127.049 126.721 123.454 123.973C120.352 121.599 118.679 118.105 117.472 114.521C116.942 112.952 116.132 111.425 115.126 110.158C114.132 108.911 112.988 107.726 111.736 106.731C141.603 104.745 140.808 129.252 140.808 129.252Z" fill="#771100"/>
<mask id="mask7_3481_1746" style="mask-type:luminance" maskUnits="userSpaceOnUse" x="76" y="121" width="117" height="17">
<path d="M76.1242 121.229H192.87V137.011H76.1242V121.229Z" fill="white"/>
</mask>
<g mask="url(#mask7_3481_1746)">
<path d="M181.02 121.518C183.906 122.474 185.515 123.53 185.515 124.645C185.515 128.845 162.678 132.25 134.508 132.25C106.336 132.25 83.4993 128.845 83.4993 124.645C83.4993 123.53 85.1077 122.474 87.9966 121.518C80.6692 123.135 76.3259 125.147 76.3259 127.324C76.3259 132.662 102.374 136.986 134.508 136.986C166.64 136.986 192.691 132.662 192.691 127.324C192.691 125.147 188.348 123.135 181.02 121.518Z" fill="#771100"/>
</g>
<path d="M87.5118 114.431L96.7503 126.996C98.0645 127.22 99.53 127.439 101.175 127.654C106.053 128.296 111.68 128.784 117.724 129.1L96.4337 106.93C96.7083 104.663 96.0778 102.293 94.4918 100.407C91.4544 96.7979 86.066 96.3328 82.4541 99.3703C78.8422 102.405 78.3771 107.793 81.4145 111.402C83.0033 113.288 85.2309 114.314 87.5118 114.431Z" fill="#771100"/>
<mask id="mask8_3481_1746" style="mask-type:luminance" maskUnits="userSpaceOnUse" x="76" y="131" width="117" height="57">
<path d="M76.1242 131.272H192.87V187.647H76.1242V131.272Z" fill="white"/>
</mask>
<g mask="url(#mask8_3481_1746)">
<path d="M82.8772 144.246C82.8772 144.246 91.9672 146.821 102.259 147.471C105.703 174.326 123.729 181.953 123.729 181.953C104.579 177.086 89.2072 162.759 82.8772 144.246ZM189.115 133.62C186.005 134.842 181.625 135.926 176.097 136.845C164.964 138.692 150.194 139.712 134.508 139.712C118.822 139.712 104.053 138.692 92.9199 136.845C87.3886 135.926 83.0089 134.842 79.9014 133.62C79.114 133.312 77.5197 132.684 76.1326 131.65C77.3908 162.795 103.044 187.656 134.508 187.656C165.973 187.656 191.623 162.795 192.884 131.65C191.494 132.684 189.9 133.312 189.115 133.62Z" fill="#771100"/>
</g>
<mask id="mask9_3481_1746" style="mask-type:luminance" maskUnits="userSpaceOnUse" x="96" y="210" width="4" height="4">
<path d="M96.1675 210.414H99.1797V213.426H96.1675V210.414Z" fill="white"/>
</mask>
<g mask="url(#mask9_3481_1746)">
<mask id="mask10_3481_1746" style="mask-type:luminance" maskUnits="userSpaceOnUse" x="96" y="210" width="4" height="4">
<path d="M97.6722 210.414C96.8428 210.414 96.1675 211.089 96.1675 211.919C96.1675 212.751 96.8428 213.426 97.6722 213.426C98.5044 213.426 99.1797 212.751 99.1797 211.919C99.1797 211.089 98.5044 210.414 97.6722 210.414Z" fill="white"/>
</mask>
<g mask="url(#mask10_3481_1746)">
<path d="M96.1675 210.414H99.1797V213.426H96.1675V210.414Z" fill="#771100"/>
</g>
</g>
<mask id="mask11_3481_1746" style="mask-type:luminance" maskUnits="userSpaceOnUse" x="159" y="213" width="4" height="4">
<path d="M159.744 213.426H162.756V216.436H159.744V213.426Z" fill="white"/>
</mask>
<g mask="url(#mask11_3481_1746)">
<mask id="mask12_3481_1746" style="mask-type:luminance" maskUnits="userSpaceOnUse" x="159" y="213" width="4" height="4">
<path d="M161.249 213.426C160.419 213.426 159.744 214.099 159.744 214.931C159.744 215.76 160.419 216.436 161.249 216.436C162.081 216.436 162.756 215.76 162.756 214.931C162.756 214.099 162.081 213.426 161.249 213.426Z" fill="white"/>
</mask>
<g mask="url(#mask12_3481_1746)">
<path d="M159.744 213.426H162.756V216.436H159.744V213.426Z" fill="#771100"/>
</g>
</g>
</g>
</svg>
