<svg width="22" height="22" viewBox="0 0 22 22" fill="none" xmlns="http://www.w3.org/2000/svg">
<g id="mdi:allergy" clip-path="url(#clip0_5319_400)">
<path id="Vector" d="M6.13913 -0.386719C6.73762 -0.386719 7.3116 -0.148969 7.7348 0.274228C8.15799 0.697424 8.39574 1.2714 8.39574 1.86989C8.39574 2.46838 8.15799 3.04236 7.7348 3.46556C7.3116 3.88876 6.73762 4.1265 6.13913 4.1265C5.54064 4.1265 4.96666 3.88876 4.54347 3.46556C4.12027 3.04236 3.88252 2.46838 3.88252 1.86989C3.88252 1.2714 4.12027 0.697424 4.54347 0.274228C4.96666 -0.148969 5.54064 -0.386719 6.13913 -0.386719ZM3.60044 16.5379V13.7171H2.97282C2.58849 13.7171 2.317 13.3398 2.43688 12.9731L3.53345 9.67989L2.52503 11.0127C2.14775 11.5099 1.43903 11.6051 0.9454 11.2313C0.451766 10.8576 0.353039 10.1488 0.72679 9.65168L2.80358 6.91201C3.59339 5.86833 4.831 5.25481 6.13913 5.25481C7.44726 5.25481 8.68487 5.86833 9.47469 6.91201L11.5515 9.65168C11.9288 10.1488 11.83 10.8576 11.3329 11.2313C10.8357 11.6051 10.127 11.5099 9.75324 11.0127L8.74481 9.67989L9.84138 12.9731C9.96479 13.3398 9.68977 13.7171 9.30544 13.7171H8.67782V16.5379C8.67782 17.162 8.17361 17.6662 7.54951 17.6662C6.92542 17.6662 6.42121 17.162 6.42121 16.5379V13.7171H5.85706V16.5379C5.85706 17.162 5.35284 17.6662 4.72875 17.6662C4.10466 17.6662 3.60044 17.162 3.60044 16.5379ZM17.4222 -0.386719C18.0207 -0.386719 18.5947 -0.148969 19.0179 0.274228C19.441 0.697424 19.6788 1.2714 19.6788 1.86989C19.6788 2.46838 19.441 3.04236 19.0179 3.46556C18.5947 3.88876 18.0207 4.1265 17.4222 4.1265C16.8237 4.1265 16.2497 3.88876 15.8265 3.46556C15.4033 3.04236 15.1656 2.46838 15.1656 1.86989C15.1656 1.2714 15.4033 0.697424 15.8265 0.274228C16.2497 -0.148969 16.8237 -0.386719 17.4222 -0.386719ZM17.1401 13.153V16.5379C17.1401 17.162 16.6359 17.6662 16.0118 17.6662C15.3877 17.6662 14.8835 17.162 14.8835 16.5379V10.2088L14.4287 10.9316C14.0972 11.4605 13.3991 11.6156 12.8737 11.2842C12.3483 10.9528 12.1897 10.2546 12.5211 9.72925L14.344 6.83444C14.9646 5.8507 16.0471 5.25128 17.2071 5.25128H17.6408C18.8044 5.25128 19.8868 5.84717 20.5039 6.83444L22.3268 9.73277C22.6582 10.2617 22.4996 10.9563 21.9742 11.2877C21.4488 11.6192 20.7507 11.4605 20.4193 10.9351L19.9609 10.2088V16.5379C19.9609 17.162 19.4567 17.6662 18.8326 17.6662C18.2085 17.6662 17.7043 17.162 17.7043 16.5379V13.153H17.1401Z" fill="#771100"/>
</g>
<defs>
<clipPath id="clip0_5319_400">
<rect width="22" height="22" fill="white"/>
</clipPath>
</defs>
</svg>
