<svg width="32" height="33" viewBox="0 0 32 33" fill="none" xmlns="http://www.w3.org/2000/svg">
<g id="solar:camera-bold">
<path id="Vector" fill-rule="evenodd" clip-rule="evenodd" d="M6.66663 21.7375C6.93184 21.7375 7.1862 21.8428 7.37373 22.0304C7.56127 22.2179 7.66663 22.4722 7.66663 22.7375V25.4041C7.66663 25.5881 7.81596 25.7375 7.99996 25.7375H24C24.0884 25.7375 24.1732 25.7023 24.2357 25.6398C24.2982 25.5773 24.3333 25.4925 24.3333 25.4041V22.7375C24.3333 22.4722 24.4387 22.2179 24.6262 22.0304C24.8137 21.8428 25.0681 21.7375 25.3333 21.7375C25.5985 21.7375 25.8529 21.8428 26.0404 22.0304C26.2279 22.2179 26.3333 22.4722 26.3333 22.7375V25.4041C26.3333 26.023 26.0875 26.6165 25.6499 27.054C25.2123 27.4916 24.6188 27.7375 24 27.7375H7.99996C7.38112 27.7375 6.78763 27.4916 6.35004 27.054C5.91246 26.6165 5.66663 26.023 5.66663 25.4041V22.7375C5.66663 22.4722 5.77198 22.2179 5.95952 22.0304C6.14706 21.8428 6.40141 21.7375 6.66663 21.7375ZM14.3173 21.5735C13.9864 21.5737 13.6674 21.45 13.4233 21.2266C13.1792 21.0032 13.0276 20.6964 12.9986 20.3668C12.7943 18.0302 12.7587 15.6819 12.892 13.3401C12.5624 13.3217 12.2331 13.3004 11.904 13.2761L9.91729 13.1308C9.74233 13.118 9.57369 13.06 9.42788 12.9624C9.28207 12.8649 9.16408 12.7311 9.08546 12.5743C9.00684 12.4175 8.97029 12.2429 8.97937 12.0677C8.98846 11.8925 9.04287 11.7227 9.13729 11.5748C10.5531 9.35863 12.3776 7.43196 14.5133 5.89747L15.3093 5.32547C15.5106 5.18091 15.7521 5.10315 16 5.10315C16.2478 5.10315 16.4893 5.18091 16.6906 5.32547L17.4866 5.8988C19.6222 7.43292 21.4466 9.35913 22.8626 11.5748C22.957 11.7227 23.0115 11.8925 23.0205 12.0677C23.0296 12.2429 22.9931 12.4175 22.9145 12.5743C22.8358 12.7311 22.7179 12.8649 22.572 12.9624C22.4262 13.06 22.2576 13.118 22.0826 13.1308L20.096 13.2761C19.768 13.3001 19.4386 13.3215 19.1093 13.3388C19.2426 15.6815 19.2053 18.0295 19 20.3655C18.9713 20.6951 18.8201 21.002 18.5762 21.2256C18.3323 21.4493 18.0135 21.5734 17.6826 21.5735H14.3173Z" fill="white"/>
<path id="Vector_2" fill-rule="evenodd" clip-rule="evenodd" d="M13.0373 28.0707H18.9626C23.124 28.0707 25.2053 28.0707 26.7 27.0907C27.3449 26.668 27.9003 26.1226 28.3346 25.4854C29.3333 24.0187 29.3333 21.9747 29.3333 17.8894C29.3333 13.8027 29.3333 11.7601 28.3346 10.2934C27.9003 9.65622 27.3449 9.11074 26.7 8.68807C25.74 8.05741 24.5373 7.83207 22.696 7.75207C21.8173 7.75207 21.0613 7.09874 20.8893 6.25207C20.7578 5.6319 20.4163 5.07612 19.9224 4.67868C19.4285 4.28123 18.8126 4.06649 18.1786 4.07074H13.8213C12.504 4.07074 11.3693 4.98407 11.1106 6.25207C10.9386 7.09874 10.1826 7.75207 9.30396 7.75207C7.46396 7.83207 6.26129 8.05874 5.29996 8.68807C4.65545 9.11083 4.10046 9.65631 3.66663 10.2934C2.66663 11.7601 2.66663 13.8027 2.66663 17.8894C2.66663 21.9747 2.66663 24.0174 3.66529 25.4854C4.09729 26.1201 4.65196 26.6654 5.29996 27.0907C6.79463 28.0707 8.87596 28.0707 13.0373 28.0707ZM16 12.4347C12.932 12.4347 10.444 14.8761 10.444 17.8881C10.444 20.9014 12.932 23.3427 16 23.3427C19.068 23.3427 21.556 20.9014 21.556 17.8894C21.556 14.8761 19.068 12.4347 16 12.4347ZM16 14.6161C14.16 14.6161 12.6666 16.0814 12.6666 17.8894C12.6666 19.6961 14.16 21.1614 16 21.1614C17.84 21.1614 19.3333 19.6961 19.3333 17.8894C19.3333 16.0814 17.84 14.6161 16 14.6161ZM22.296 13.5254C22.296 12.9227 22.7933 12.4347 23.408 12.4347H24.888C25.5013 12.4347 26 12.9227 26 13.5254C25.9971 13.8173 25.8786 14.0961 25.6703 14.3006C25.4621 14.5051 25.1812 14.6186 24.8893 14.6161H23.408C23.2633 14.6175 23.1198 14.5904 22.9857 14.5363C22.8515 14.4823 22.7293 14.4023 22.6261 14.3011C22.5228 14.1998 22.4405 14.0792 22.3839 13.9461C22.3272 13.813 22.2974 13.67 22.296 13.5254Z" fill="url(#paint0_linear_633_2789)"/>
</g>
<defs>
<linearGradient id="paint0_linear_633_2789" x1="4.15942" y1="7.91576" x2="8.82085" y2="32.0736" gradientUnits="userSpaceOnUse">
<stop stop-color="#B3261E"/>
<stop offset="0.567708" stop-color="#7E1B15"/>
<stop offset="1" stop-color="#3F0D0B"/>
</linearGradient>
</defs>
</svg>
