<svg width="58" height="48" viewBox="0 0 58 48" fill="none" xmlns="http://www.w3.org/2000/svg">
<path id="Vector" d="M15.1105 0.613281C16.6611 0.613281 18.1482 1.22927 19.2447 2.32573C20.3412 3.4222 20.9572 4.90932 20.9572 6.45996C20.9572 8.01059 20.3412 9.49772 19.2447 10.5942C18.1482 11.6906 16.6611 12.3066 15.1105 12.3066C13.5598 12.3066 12.0727 11.6906 10.9763 10.5942C9.87979 9.49772 9.2638 8.01059 9.2638 6.45996C9.2638 4.90932 9.87979 3.4222 10.9763 2.32573C12.0727 1.22927 13.5598 0.613281 15.1105 0.613281ZM8.53297 44.4633V37.155H6.90686C5.9111 37.155 5.20767 36.1775 5.51828 35.2274L8.3594 26.6949L5.74666 30.1481C4.76917 31.4362 2.93295 31.6829 1.65399 30.7145C0.37503 29.7462 0.119238 27.9099 1.08759 26.6219L6.46836 19.5236C8.5147 16.8195 11.7212 15.23 15.1105 15.23C18.4997 15.23 21.7063 16.8195 23.7526 19.5236L29.1334 26.6219C30.1109 27.9099 29.8551 29.7462 28.567 30.7145C27.2789 31.6829 25.4426 31.4362 24.4743 30.1481L21.8616 26.6949L24.7027 35.2274C25.0224 36.1775 24.3099 37.155 23.3141 37.155H21.688V44.4633C21.688 46.0803 20.3816 47.3867 18.7646 47.3867C17.1477 47.3867 15.8413 46.0803 15.8413 44.4633V37.155H14.3796V44.4633C14.3796 46.0803 13.0733 47.3867 11.4563 47.3867C9.83934 47.3867 8.53297 46.0803 8.53297 44.4633ZM44.3439 0.613281C45.8945 0.613281 47.3816 1.22927 48.4781 2.32573C49.5745 3.4222 50.1905 4.90932 50.1905 6.45996C50.1905 8.01059 49.5745 9.49772 48.4781 10.5942C47.3816 11.6906 45.8945 12.3066 44.3439 12.3066C42.7932 12.3066 41.3061 11.6906 40.2096 10.5942C39.1132 9.49772 38.4972 8.01059 38.4972 6.45996C38.4972 4.90932 39.1132 3.4222 40.2096 2.32573C41.3061 1.22927 42.7932 0.613281 44.3439 0.613281ZM43.613 35.6933V44.4633C43.613 46.0803 42.3067 47.3867 40.6897 47.3867C39.0727 47.3867 37.7663 46.0803 37.7663 44.4633V28.0652L36.5879 29.938C35.7291 31.3083 33.9203 31.7103 32.5592 30.8516C31.198 29.9928 30.7869 28.184 31.6456 26.8228L36.3686 19.3226C37.9765 16.7739 40.781 15.2208 43.7866 15.2208H44.9103C47.9249 15.2208 50.7295 16.7647 52.3282 19.3226L57.0512 26.832C57.91 28.2023 57.4989 30.002 56.1377 30.8607C54.7765 31.7194 52.9677 31.3083 52.109 29.9471L50.9214 28.0652V44.4633C50.9214 46.0803 49.615 47.3867 47.998 47.3867C46.3811 47.3867 45.0747 46.0803 45.0747 44.4633V35.6933H43.613Z" fill="url(#paint0_linear_5224_1724)"/>
<defs>
<linearGradient id="paint0_linear_5224_1724" x1="3.69084" y1="8.10691" x2="12.0243" y2="55.4746" gradientUnits="userSpaceOnUse">
<stop stop-color="#B3261E"/>
<stop offset="0.567708" stop-color="#7E1B15"/>
<stop offset="1" stop-color="#3F0D0B"/>
</linearGradient>
</defs>
</svg>
