<svg width="15" height="15" viewBox="0 0 15 15" fill="none" xmlns="http://www.w3.org/2000/svg">
<g id="pepicons-pop:times">
<g id="Group">
<path id="Vector" d="M5.379 10.682C5.23827 10.8228 5.0474 10.9018 4.84838 10.9018C4.64936 10.9018 4.45848 10.8228 4.31775 10.682C4.17702 10.5413 4.09796 10.3504 4.09796 10.1514C4.09796 10.0529 4.11737 9.95529 4.15508 9.86424C4.1928 9.7732 4.24807 9.69047 4.31775 9.62079L9.621 4.31829C9.69064 4.24861 9.77331 4.19332 9.86431 4.15559C9.95531 4.11786 10.0529 4.09842 10.1514 4.09839C10.2499 4.09835 10.3474 4.11772 10.4385 4.15539C10.5295 4.19306 10.6122 4.24828 10.6819 4.31792C10.7516 4.38755 10.8068 4.47023 10.8446 4.56123C10.8823 4.65222 10.9017 4.74976 10.9018 4.84828C10.9018 4.94679 10.8824 5.04434 10.8448 5.13537C10.8071 5.22639 10.7519 5.30911 10.6823 5.37879L5.379 10.6813V10.682Z" fill="white"/>
<path id="Vector_2" d="M4.31775 5.37894C4.17702 5.23821 4.09796 5.04734 4.09796 4.84832C4.09796 4.64929 4.17702 4.45842 4.31775 4.31769C4.45848 4.17696 4.64936 4.0979 4.84838 4.0979C5.0474 4.0979 5.23827 4.17696 5.379 4.31769L10.6815 9.62094C10.7512 9.69058 10.8065 9.77325 10.8442 9.86425C10.8819 9.95525 10.9014 10.0528 10.9014 10.1513C10.9014 10.2498 10.8821 10.3474 10.8444 10.4384C10.8067 10.5294 10.7515 10.6121 10.6819 10.6818C10.6122 10.7515 10.5296 10.8068 10.4386 10.8445C10.3476 10.8822 10.25 10.9017 10.1515 10.9017C10.053 10.9018 9.95546 10.8824 9.86443 10.8447C9.7734 10.8071 9.69069 10.7518 9.62101 10.6822L4.31775 5.37894Z" fill="white"/>
</g>
</g>
</svg>
