<svg width="20" height="21" viewBox="0 0 20 21" fill="none" xmlns="http://www.w3.org/2000/svg">
<g id="pepicons-pop:times">
<g id="Group">
<path id="Vector" d="M7.17201 14.7432C6.98437 14.9308 6.72988 15.0362 6.46451 15.0362C6.19915 15.0362 5.94466 14.9308 5.75701 14.7432C5.56937 14.5555 5.46396 14.301 5.46396 14.0357C5.46396 13.9043 5.48984 13.7742 5.54012 13.6528C5.5904 13.5314 5.6641 13.4211 5.75701 13.3282L12.828 6.25817C12.9209 6.16526 13.0311 6.09154 13.1524 6.04124C13.2738 5.99093 13.4038 5.96501 13.5352 5.96497C13.6665 5.96492 13.7966 5.99074 13.918 6.04097C14.0393 6.09119 14.1496 6.16482 14.2425 6.25767C14.3354 6.35051 14.4091 6.46075 14.4594 6.58208C14.5098 6.70341 14.5357 6.83347 14.5357 6.96481C14.5358 7.09616 14.5099 7.22624 14.4597 7.3476C14.4095 7.46897 14.3359 7.57926 14.243 7.67217L7.17201 14.7422V14.7432Z" fill="#771100"/>
<path id="Vector_2" d="M5.75701 7.67205C5.56937 7.4844 5.46396 7.22991 5.46396 6.96455C5.46396 6.69918 5.56937 6.44469 5.75701 6.25705C5.94466 6.0694 6.19915 5.96399 6.46451 5.96399C6.72988 5.96399 6.98437 6.0694 7.17201 6.25705L14.242 13.328C14.3349 13.4209 14.4086 13.5311 14.4589 13.6525C14.5093 13.7738 14.5352 13.9038 14.5352 14.0352C14.5353 14.1665 14.5094 14.2966 14.4592 14.418C14.409 14.5393 14.3354 14.6496 14.2425 14.7425C14.1497 14.8355 14.0394 14.9092 13.9181 14.9595C13.7968 15.0098 13.6667 15.0357 13.5354 15.0357C13.404 15.0358 13.2739 15.01 13.1526 14.9597C13.0312 14.9095 12.9209 14.8359 12.828 14.743L5.75701 7.67205Z" fill="#771100"/>
</g>
</g>
</svg>
