<svg width="68" height="67" viewBox="0 0 68 67" fill="none" xmlns="http://www.w3.org/2000/svg">
<g id="fluent-mdl2:alert-solid" clip-path="url(#clip0_2518_2722)">
<path id="Vector" d="M34 0C37.1211 0 40.1315 0.392578 43.0312 1.17773C45.931 1.96289 48.6315 3.09701 51.1328 4.58008C53.6341 6.06315 55.9251 7.80794 58.0059 9.81445C60.0866 11.821 61.8685 14.0783 63.3516 16.5864C64.8346 19.0946 65.9746 21.7663 66.7715 24.6016C67.5684 27.4368 67.9779 30.403 68 33.5C68 36.5752 67.6016 39.5413 66.8047 42.3984C66.0078 45.2555 64.8568 47.9163 63.3516 50.3809C61.8464 52.8454 60.0755 55.1027 58.0391 57.1528C56.0026 59.203 53.7116 60.9587 51.166 62.4199C48.6204 63.8812 45.9089 65.0044 43.0312 65.7896C40.1536 66.5747 37.1432 66.9782 34 67C30.8789 67 27.8685 66.6074 24.9688 65.8223C22.069 65.0371 19.3685 63.903 16.8672 62.4199C14.3659 60.9368 12.0749 59.1921 9.99414 57.1855C7.91341 55.179 6.13151 52.9217 4.64844 50.4136C3.16536 47.9054 2.02539 45.2337 1.22852 42.3984C0.431641 39.5632 0.0221354 36.597 0 33.5C0 30.4248 0.398438 27.4587 1.19531 24.6016C1.99219 21.7445 3.14323 19.0837 4.64844 16.6191C6.15365 14.1546 7.92448 11.8973 9.96094 9.84717C11.9974 7.79704 14.2884 6.04134 16.834 4.58008C19.3796 3.11881 22.0911 1.99561 24.9688 1.21045C27.8464 0.425293 30.8568 0.0218099 34 0ZM38.25 50.25V41.875H29.75V50.25H38.25ZM38.25 37.6875V16.75H29.75V37.6875H38.25Z" fill="#A1221B"/>
</g>
<defs>
<clipPath id="clip0_2518_2722">
<rect width="68" height="67" fill="white"/>
</clipPath>
</defs>
</svg>
