<svg width="32" height="31" viewBox="0 0 32 31" fill="none" xmlns="http://www.w3.org/2000/svg">
<path d="M21.1021 27.8677C20.9298 27.8677 20.7684 27.841 20.6177 27.7876C20.467 27.7343 20.3271 27.6425 20.1979 27.5125L16.5166 23.8313C16.2798 23.5945 16.1614 23.2931 16.1614 22.9271C16.1614 22.5611 16.2798 22.2597 16.5166 22.0229C16.7535 21.7861 17.0548 21.6677 17.4208 21.6677C17.7868 21.6677 18.0882 21.7861 18.325 22.0229L21.1021 24.8L27.4958 18.4063C27.7326 18.1695 28.034 18.0511 28.4 18.0511C28.766 18.0511 29.0673 18.1695 29.3041 18.4063C29.541 18.6431 29.6594 18.9445 29.6594 19.3104C29.6594 19.6764 29.541 19.9778 29.3041 20.2146L22.0062 27.5125C21.8771 27.6417 21.7371 27.7334 21.5864 27.7876C21.4357 27.8419 21.2743 27.8686 21.1021 27.8677ZM15.3219 16.3719C15.5371 16.5011 15.7632 16.5656 16 16.5656C16.2368 16.5656 16.4628 16.5011 16.6781 16.3719L25.7198 10.7209C25.892 10.6132 26.0375 10.4462 26.1564 10.2197C26.2752 9.99322 26.3342 9.77277 26.3333 9.55836C26.3333 9.14933 26.1611 8.85311 25.8167 8.66969C25.4722 8.48627 25.1278 8.50263 24.7833 8.71877L16 14.2084L7.21665 8.71877C6.8722 8.50349 6.52776 8.49273 6.18332 8.68648C5.83887 8.88023 5.66665 9.18162 5.66665 9.59065C5.66665 9.80593 5.72607 10.0212 5.8449 10.2365C5.96373 10.4518 6.10883 10.6132 6.28019 10.7209L15.3219 16.3719ZM5.66665 25.8334C4.95623 25.8334 4.34786 25.5802 3.84152 25.0739C3.33519 24.5675 3.08245 23.9596 3.08332 23.25V7.75002C3.08332 7.03961 3.33648 6.43123 3.84282 5.9249C4.34915 5.41856 4.95709 5.16583 5.66665 5.16669H26.3333C27.0437 5.16669 27.6521 5.41986 28.1584 5.92619C28.6648 6.43252 28.9175 7.04047 28.9167 7.75002V14.8865C28.5507 14.8219 28.1632 14.849 27.7542 14.9679C27.3451 15.0867 26.9792 15.3071 26.6562 15.6292L21.1344 21.1511L19.2614 19.2781C18.7448 18.7615 18.1312 18.5031 17.4208 18.5031C16.7104 18.5031 16.0969 18.7615 15.5802 19.2781L13.8041 21.0542C13.2875 21.5709 13.0291 22.1844 13.0291 22.8948C13.0291 23.6052 13.2875 24.2188 13.8041 24.7354L14.9021 25.8334H5.66665Z" fill="#771100"/>
</svg>
