<svg width="13" height="16" viewBox="0 0 13 16" fill="none" xmlns="http://www.w3.org/2000/svg">
<path id="Vector" d="M8.03761 7.99906V14.2382C8.06928 14.4757 7.9901 14.7291 7.808 14.8953C7.73475 14.9687 7.64774 15.027 7.55196 15.0667C7.45618 15.1064 7.3535 15.1269 7.2498 15.1269C7.14611 15.1269 7.04343 15.1064 6.94765 15.0667C6.85186 15.027 6.76486 14.9687 6.69161 14.8953L5.10016 13.3039C5.01381 13.2195 4.94815 13.1162 4.90831 13.0022C4.86848 12.8882 4.85556 12.7665 4.87055 12.6467V7.99906H4.8468L0.286227 2.15583C0.157651 1.99077 0.099635 1.78153 0.124856 1.57383C0.150077 1.36612 0.256485 1.17685 0.420827 1.04736C0.571263 0.93651 0.737534 0.873169 0.911722 0.873169H11.9964C12.1706 0.873169 12.3369 0.93651 12.4873 1.04736C12.6517 1.17685 12.7581 1.36612 12.7833 1.57383C12.8085 1.78153 12.7505 1.99077 12.6219 2.15583L8.06136 7.99906H8.03761Z" fill="#010F07"/>
</svg>
