<svg width="13" height="16" viewBox="0 0 13 16" fill="none" xmlns="http://www.w3.org/2000/svg">
<path id="Vector" d="M8.03764 7.99906V14.2382C8.06931 14.4757 7.99013 14.7291 7.80803 14.8953C7.73478 14.9687 7.64777 15.027 7.55199 15.0667C7.45621 15.1064 7.35353 15.1269 7.24983 15.1269C7.14614 15.1269 7.04346 15.1064 6.94768 15.0667C6.85189 15.027 6.76489 14.9687 6.69164 14.8953L5.10019 13.3039C5.01384 13.2195 4.94818 13.1162 4.90834 13.0022C4.86851 12.8882 4.85559 12.7665 4.87058 12.6467V7.99906H4.84683L0.286258 2.15583C0.157682 1.99077 0.0996655 1.78153 0.124886 1.57383C0.150107 1.36612 0.256515 1.17685 0.420858 1.04736C0.571293 0.93651 0.737564 0.873169 0.911752 0.873169H11.9965C12.1707 0.873169 12.3369 0.93651 12.4874 1.04736C12.6517 1.17685 12.7581 1.36612 12.7833 1.57383C12.8086 1.78153 12.7505 1.99077 12.622 2.15583L8.06139 7.99906H8.03764Z" fill="white"/>
</svg>
