<svg width="21" height="20" viewBox="0 0 21 20" fill="none" xmlns="http://www.w3.org/2000/svg">
<path id="Vector" d="M19.9068 8.74231C16.7993 6.12615 11.1563 1.25223 11.1004 1.20273L10.5 0.686646L9.90229 1.20273C9.84546 1.25131 4.19971 6.1234 1.04729 8.7634C0.851262 8.93702 0.693843 9.14984 0.585209 9.38811C0.476575 9.62638 0.419143 9.88479 0.416626 10.1466C0.416626 10.6329 0.60978 11.0992 0.953597 11.443C1.29741 11.7868 1.76373 11.98 2.24996 11.98H3.16663V17.48C3.16663 17.9662 3.35978 18.4325 3.7036 18.7763C4.04741 19.1202 4.51373 19.3133 4.99996 19.3133H16C16.4862 19.3133 16.9525 19.1202 17.2963 18.7763C17.6401 18.4325 17.8333 17.9662 17.8333 17.48V11.98H18.75C19.2362 11.98 19.7025 11.7868 20.0463 11.443C20.3901 11.0992 20.5833 10.6329 20.5833 10.1466C20.5833 9.59848 20.3312 9.0824 19.9068 8.74231ZM12.3333 17.48H8.66663V12.8966H12.3333V17.48ZM16 10.1466L16.0018 17.48H13.25V11.98H7.74996V17.48H4.99996V10.1466H2.24904C4.78363 8.02731 8.95446 4.43856 10.5 3.10665C12.0455 4.43856 16.2145 8.0264 18.75 10.1476L16 10.1466Z" fill="#771100"/>
</svg>
