<svg xmlns="http://www.w3.org/2000/svg" width="56" height="56" viewBox="0 0 56 56" fill="none">
<defs>
<clipPath id="clip0_2629_1196">
<rect width="56" height="56" fill="white"/>
</clipPath>
</defs>
<g clip-path="url(#clip0_2629_1196)">
<path d="M31.0309 7.34534L51.1769 42.238C51.4841 42.7701 51.6458 43.3736 51.6458 43.988C51.6458 44.6024 51.4841 45.2059 51.1769 45.738C50.8698 46.27 50.4279 46.7119 49.8959 47.0191C49.3638 47.3263 48.7603 47.488 48.1459 47.488H7.85392C7.23954 47.488 6.636 47.3263 6.10395 47.0191C5.57189 46.7119 5.13007 46.27 4.82289 45.738C4.51571 45.2059 4.354 44.6024 4.354 43.988C4.35401 43.3736 4.51573 42.7701 4.82291 42.238L24.9689 7.34534C26.3153 5.012 29.6822 5.012 31.0309 7.34534ZM27.9999 35C27.3811 35 26.7876 35.2458 26.35 35.6834C25.9124 36.121 25.6666 36.7145 25.6666 37.3333C25.6666 37.9522 25.9124 38.5457 26.35 38.9833C26.7876 39.4208 27.3811 39.6667 27.9999 39.6667C28.6188 39.6667 29.2122 39.4208 29.6498 38.9833C30.0874 38.5457 30.3333 37.9522 30.3333 37.3333C30.3333 36.7145 30.0874 36.121 29.6498 35.6834C29.2122 35.2458 28.6188 35 27.9999 35ZM27.9999 18.6667C27.4284 18.6667 26.8768 18.8766 26.4497 19.2563C26.0226 19.6361 25.7498 20.1594 25.6829 20.727L25.6666 21V30.3333C25.6672 30.9281 25.895 31.5001 26.3032 31.9325C26.7115 32.365 27.2695 32.6252 27.8632 32.6601C28.4569 32.6949 29.0415 32.5018 29.4975 32.1201C29.9536 31.7383 30.2467 31.1969 30.3169 30.6063L30.3333 30.3333V21C30.3333 20.3812 30.0874 19.7877 29.6498 19.3501C29.2122 18.9125 28.6188 18.6667 27.9999 18.6667Z" fill="#A1221B"/>
</g>

</svg>