<svg width="61" height="51" viewBox="0 0 61 51" fill="none" xmlns="http://www.w3.org/2000/svg">
<g clip-path="url(#clip0_3813_7780)">
<path d="M23.3332 24.2374C23.5456 24.2377 23.7499 24.319 23.9044 24.4648C24.0588 24.6106 24.1518 24.8099 24.1642 25.0219C24.1766 25.234 24.1077 25.4427 23.9713 25.6056C23.835 25.7685 23.6416 25.8732 23.4307 25.8983L23.3332 25.9041H22.4999C22.2875 25.9039 22.0832 25.8225 21.9288 25.6767C21.7743 25.5309 21.6814 25.3316 21.6689 25.1196C21.6565 24.9076 21.7255 24.6988 21.8618 24.5359C21.9981 24.373 22.1915 24.2683 22.4024 24.2433L22.4999 24.2374H23.3332ZM29.9999 16.7374C30.204 16.7375 30.401 16.8124 30.5535 16.948C30.7061 17.0837 30.8035 17.2706 30.8274 17.4733L30.8332 17.5708V18.4041C30.833 18.6165 30.7517 18.8208 30.6059 18.9752C30.46 19.1297 30.2608 19.2226 30.0487 19.2351C29.8367 19.2475 29.6279 19.1785 29.465 19.0422C29.3022 18.9059 29.1975 18.7125 29.1724 18.5016L29.1666 18.4041V17.5708C29.1666 17.3497 29.2544 17.1378 29.4106 16.9815C29.5669 16.8252 29.7789 16.7374 29.9999 16.7374ZM37.4999 24.2374C37.7123 24.2377 37.9166 24.319 38.071 24.4648C38.2255 24.6106 38.3184 24.8099 38.3309 25.0219C38.3433 25.234 38.2743 25.4427 38.138 25.6056C38.0017 25.7685 37.8083 25.8732 37.5974 25.8983L37.4999 25.9041H36.6666C36.4542 25.9039 36.2499 25.8225 36.0954 25.6767C35.941 25.5309 35.848 25.3316 35.8356 25.1196C35.8231 24.9076 35.8921 24.6988 36.0284 24.5359C36.1648 24.373 36.3581 24.2683 36.5691 24.2433L36.6666 24.2374H37.4999ZM24.0774 19.1483C24.2209 19.0048 24.4118 18.9186 24.6143 18.9059C24.8168 18.8931 25.0171 18.9547 25.1774 19.0791L25.2557 19.1483L25.8391 19.7316C25.9885 19.8816 26.0753 20.0828 26.0817 20.2944C26.0882 20.506 26.0139 20.7122 25.8738 20.871C25.7338 21.0298 25.5386 21.1293 25.3278 21.1494C25.1171 21.1695 24.9065 21.1086 24.7391 20.9791L24.6607 20.9099L24.0774 20.3266C23.9212 20.1703 23.8334 19.9584 23.8334 19.7374C23.8334 19.5165 23.9212 19.3045 24.0774 19.1483ZM34.7441 19.1483C34.894 18.9988 35.0953 18.912 35.3069 18.9056C35.5185 18.8991 35.7247 18.9734 35.8835 19.1135C36.0423 19.2535 36.1418 19.4487 36.1619 19.6595C36.182 19.8703 36.1211 20.0808 35.9916 20.2483L35.9224 20.3266L35.3391 20.9099C35.1891 21.0594 34.9879 21.1462 34.7762 21.1526C34.5646 21.1591 34.3585 21.0847 34.1997 20.9447C34.0409 20.8047 33.9413 20.6095 33.9212 20.3987C33.9011 20.1879 33.962 19.9774 34.0916 19.8099L34.1607 19.7316L34.7441 19.1483ZM31.6666 30.0708C31.8876 30.0708 32.0995 30.1586 32.2558 30.3148C32.4121 30.4711 32.4999 30.6831 32.4999 30.9041C32.4999 31.5671 32.2365 32.203 31.7677 32.6719C31.2988 33.1407 30.6629 33.4041 29.9999 33.4041C29.3368 33.4041 28.701 33.1407 28.2321 32.6719C27.7633 32.203 27.4999 31.5671 27.4999 30.9041C27.4999 30.7 27.5749 30.503 27.7105 30.3505C27.8461 30.1979 28.033 30.1005 28.2357 30.0766L28.3332 30.0708H31.6666ZM29.9999 20.0708C31.0493 20.0708 32.0721 20.4009 32.9234 21.0145C33.7748 21.6282 34.4115 22.4941 34.7433 23.4896C35.0752 24.4852 35.0854 25.5599 34.7725 26.5616C34.4596 27.5633 33.8394 28.4411 32.9999 29.0708C32.885 29.157 32.7498 29.2121 32.6074 29.2308L32.4999 29.2374H27.4999C27.3196 29.2374 27.1441 29.1789 26.9999 29.0708C26.1604 28.4411 25.5402 27.5633 25.2273 26.5616C24.9144 25.5599 24.9246 24.4852 25.2565 23.4896C25.5883 22.4941 26.225 21.6282 27.0763 21.0145C27.9277 20.4009 28.9505 20.0708 29.9999 20.0708Z" fill="#771100"/>
</g>
<g opacity="0.2">
<path d="M0 50.0708H60V0.0708008H0V50.0708Z" fill="#E7BCB9"/>
<path d="M59.5 50.0708V0.0708008H60.5V50.0708H59.5Z" fill="black"/>
</g>
<defs>
<clipPath id="clip0_3813_7780">
<rect width="20" height="20" fill="white" transform="translate(20.3433 14.7522)"/>
</clipPath>
</defs>
</svg>
