<svg width="23" height="22" viewBox="0 0 23 22" fill="none" xmlns="http://www.w3.org/2000/svg">
<path d="M20.74 6.16001H15.46V4.41057C15.46 3.15613 14.65 1.76001 13.3968 1.76001H9.17636C7.92192 1.76001 7.1 3.15613 7.1 4.41057V6.16001H2.26C1.776 6.16001 1.38 6.55601 1.38 7.04001V19.8C1.38 20.284 1.776 20.68 2.26 20.68H20.74C21.224 20.68 21.62 20.284 21.62 19.8V7.04001C21.62 6.55601 21.224 6.16001 20.74 6.16001ZM13.7 19.36H8.86V18.8905C8.86 18.8804 9.12972 18.8672 9.25865 18.8518C9.38756 18.8364 9.50064 18.8104 9.59348 18.7744C9.75848 18.7123 9.94328 18.6234 10.0106 18.5077C10.0779 18.392 10.18 18.238 10.18 18.0475V13.5463C10.18 13.3659 10.0709 13.207 9.98816 13.0706C9.90544 12.9342 9.76861 12.8242 9.64497 12.742C9.55212 12.6799 9.487 12.621 9.29868 12.5642C9.11036 12.5074 8.86 12.4709 8.86 12.4555V11.891L12.457 11.6899L12.38 11.8056V17.9467C12.38 18.1271 12.519 18.2807 12.5965 18.407C12.6739 18.5332 12.835 18.6274 12.9793 18.6894C13.0822 18.7356 13.1927 18.777 13.3168 18.8131C13.4408 18.8492 13.7 18.8747 13.7 18.8905V19.36ZM9.57236 8.90517C9.57236 8.51313 9.72328 8.17829 10.0247 7.89977C10.3261 7.62125 10.686 7.48221 11.1036 7.48221C11.5211 7.48221 11.8797 7.62125 12.1785 7.89977C12.4772 8.17829 12.6273 8.51357 12.6273 8.90517C12.6273 9.29677 12.4764 9.63073 12.175 9.90661C11.8736 10.1825 11.5163 10.3202 11.1036 10.3202C10.686 10.3202 10.3261 10.1825 10.0247 9.90661C9.72328 9.63073 9.57236 9.29721 9.57236 8.90517ZM14.14 6.16001H8.42V4.41057C8.42 3.94109 8.8952 3.08001 9.36468 3.08001H12.9076C13.3762 3.08001 14.14 3.94109 14.14 4.41057V6.16001Z" fill="#3F0D0B"/>
</svg>
