<svg width="62" height="63" viewBox="0 0 62 63" fill="none" xmlns="http://www.w3.org/2000/svg">
<path fill-rule="evenodd" clip-rule="evenodd" d="M12.9166 42.0498C13.4305 42.0498 13.9233 42.2539 14.2866 42.6173C14.65 42.9806 14.8541 43.4734 14.8541 43.9873V49.154C14.8541 49.5105 15.1435 49.7998 15.5 49.7998H46.5C46.6712 49.7998 46.8355 49.7317 46.9566 49.6106C47.0778 49.4895 47.1458 49.3252 47.1458 49.154V43.9873C47.1458 43.4734 47.3499 42.9806 47.7133 42.6173C48.0766 42.2539 48.5694 42.0498 49.0833 42.0498C49.5972 42.0498 50.09 42.2539 50.4533 42.6173C50.8167 42.9806 51.0208 43.4734 51.0208 43.9873V49.154C51.0208 50.353 50.5445 51.5028 49.6967 52.3507C48.8489 53.1985 47.699 53.6748 46.5 53.6748H15.5C14.301 53.6748 13.1511 53.1985 12.3032 52.3507C11.4554 51.5028 10.9791 50.353 10.9791 49.154V43.9873C10.9791 43.4734 11.1833 42.9806 11.5466 42.6173C11.91 42.2539 12.4028 42.0498 12.9166 42.0498ZM27.7398 41.732C27.0987 41.7326 26.4806 41.4928 26.0077 41.06C25.5347 40.6271 25.2411 40.0328 25.1849 39.3941C24.7891 34.8669 24.72 30.3171 24.9782 25.78C24.3398 25.7442 23.7017 25.7029 23.064 25.656L19.2148 25.3744C18.8758 25.3495 18.5491 25.2371 18.2666 25.0481C17.984 24.8591 17.7554 24.6 17.6031 24.2961C17.4508 23.9923 17.38 23.6541 17.3976 23.3146C17.4152 22.9752 17.5206 22.6461 17.7035 22.3596C20.4468 18.0658 23.9816 14.3329 28.1195 11.3598L29.6618 10.2515C30.0518 9.97146 30.5198 9.8208 31 9.8208C31.4801 9.8208 31.9481 9.97146 32.3381 10.2515L33.8804 11.3624C38.0181 14.3347 41.5529 18.0668 44.2964 22.3596C44.4793 22.6461 44.5847 22.9752 44.6023 23.3146C44.62 23.6541 44.5491 23.9923 44.3968 24.2961C44.2445 24.6 44.0159 24.8591 43.7334 25.0481C43.4509 25.2371 43.1241 25.3495 42.7851 25.3744L38.936 25.656C38.3005 25.7025 37.6624 25.7438 37.0243 25.7774C37.2826 30.3163 37.2103 34.8655 36.8125 39.3915C36.7569 40.0302 36.4639 40.6249 35.9914 41.0581C35.5189 41.4914 34.9012 41.7319 34.2601 41.732H27.7398Z" fill="white"/>
<path fill-rule="evenodd" clip-rule="evenodd" d="M25.2598 54.3209H36.7401C44.8027 54.3209 48.8353 54.3209 51.7312 52.4222C52.9807 51.6032 54.0569 50.5463 54.8984 49.3118C56.8333 46.4702 56.8333 42.5099 56.8333 34.5946C56.8333 26.6767 56.8333 22.719 54.8984 19.8773C54.057 18.6428 52.9808 17.5859 51.7312 16.767C49.8712 15.5451 47.541 15.1085 43.9735 14.9535C42.271 14.9535 40.8063 13.6877 40.473 12.0473C40.2184 10.8457 39.5567 9.76885 38.5997 8.99879C37.6428 8.22874 36.4494 7.81268 35.2211 7.82092H26.7788C24.2265 7.82092 22.028 9.5905 21.5269 12.0473C21.1936 13.6877 19.7289 14.9535 18.0265 14.9535C14.4615 15.1085 12.1313 15.5477 10.2687 16.767C9.01998 17.5861 7.94468 18.643 7.10413 19.8773C5.16663 22.719 5.16663 26.6767 5.16663 34.5946C5.16663 42.5099 5.16663 46.4676 7.10154 49.3118C7.93854 50.5415 9.01321 51.5981 10.2687 52.4222C13.1646 54.3209 17.1972 54.3209 25.2598 54.3209ZM31 24.0262C25.0557 24.0262 20.2352 28.7563 20.2352 34.592C20.2352 40.4303 25.0557 45.1604 31 45.1604C36.9442 45.1604 41.7647 40.4303 41.7647 34.5946C41.7647 28.7563 36.9442 24.0262 31 24.0262ZM31 28.2525C27.435 28.2525 24.5416 31.0916 24.5416 34.5946C24.5416 38.095 27.435 40.9341 31 40.9341C34.565 40.9341 37.4583 38.095 37.4583 34.5946C37.4583 31.0916 34.565 28.2525 31 28.2525ZM43.1985 26.1393C43.1985 24.9717 44.162 24.0262 45.353 24.0262H48.2205C49.4088 24.0262 50.375 24.9717 50.375 26.1393C50.3695 26.7048 50.1398 27.245 49.7363 27.6412C49.3328 28.0375 48.7885 28.2573 48.223 28.2525H45.353C45.0727 28.2552 44.7947 28.2027 44.5348 28.098C44.2749 27.9933 44.0381 27.8384 43.838 27.6422C43.638 27.4459 43.4785 27.2122 43.3688 26.9544C43.259 26.6965 43.2012 26.4196 43.1985 26.1393Z" fill="url(#paint0_linear_809_6968)"/>
<defs>
<linearGradient id="paint0_linear_809_6968" x1="8.05891" y1="15.2706" x2="17.0904" y2="62.0764" gradientUnits="userSpaceOnUse">
<stop stop-color="#B3261E"/>
<stop offset="0.567708" stop-color="#7E1B15"/>
<stop offset="1" stop-color="#3F0D0B"/>
</linearGradient>
</defs>
</svg>
