<svg width="55" height="40" viewBox="0 0 55 40" fill="none" xmlns="http://www.w3.org/2000/svg">
<path id="Vector" d="M36.0462 13.3702L30.2037 6.01006C30.6479 5.49301 30.9345 4.85937 31.0294 4.18434C31.1243 3.5093 31.0235 2.82121 30.739 2.20174C30.4545 1.58227 29.9983 1.05742 29.4244 0.689485C28.8506 0.32155 28.1832 0.125977 27.5016 0.125977C26.8199 0.125977 26.1525 0.32155 25.5787 0.689485C25.0048 1.05742 24.5486 1.58227 24.2641 2.20174C23.9796 2.82121 23.8789 3.5093 23.9737 4.18434C24.0686 4.85937 24.3552 5.49301 24.7994 6.01006L18.9569 13.3702C18.7072 13.6861 18.3579 13.9081 17.9658 14C17.5737 14.0919 17.1621 14.0482 16.798 13.8761L7.8526 9.65806C7.98373 8.92463 7.8816 8.16854 7.56059 7.49617C7.23958 6.82381 6.71584 6.26901 6.06306 5.90984C5.41028 5.55067 4.66132 5.40521 3.92156 5.49391C3.18179 5.58262 2.48846 5.90103 1.9391 6.40435C1.38975 6.90767 1.01202 7.57056 0.859075 8.29976C0.706128 9.02896 0.785656 9.78776 1.08647 10.4694C1.38728 11.151 1.89424 11.7212 2.53601 12.0997C3.17779 12.4782 3.92208 12.6459 4.66416 12.5793L9.29541 35.7356C9.49771 36.7434 10.0425 37.6503 10.8373 38.3022C11.6321 38.9541 12.6279 39.311 13.6559 39.3123H41.3365C42.3662 39.3125 43.3642 38.9559 44.1605 38.3031C44.9568 37.6503 45.5023 36.7417 45.7042 35.732L50.3354 12.5793C51.0775 12.6459 51.8218 12.4782 52.4636 12.0997C53.1053 11.7212 53.6123 11.151 53.9131 10.4694C54.2139 9.78776 54.2934 9.02896 54.1405 8.29976C53.9875 7.57056 53.6098 6.90767 53.0605 6.40435C52.5111 5.90103 51.8178 5.58262 51.078 5.49391C50.3382 5.40521 49.5893 5.55067 48.9365 5.90984C48.2837 6.26901 47.76 6.82381 47.439 7.49617C47.118 8.16854 47.0158 8.92463 47.147 9.65806L38.198 13.8761C37.8343 14.0473 37.4235 14.0905 37.0322 13.9986C36.6409 13.9068 36.2922 13.6853 36.0427 13.3702H36.0462ZM27.4998 28.6248C26.555 28.6248 25.6488 28.2495 24.9807 27.5814C24.3126 26.9133 23.9373 26.0071 23.9373 25.0623C23.9373 24.1175 24.3126 23.2113 24.9807 22.5432C25.6488 21.8751 26.555 21.4998 27.4998 21.4998C28.4446 21.4998 29.3508 21.8751 30.0189 22.5432C30.687 23.2113 31.0623 24.1175 31.0623 25.0623C31.0623 26.0071 30.687 26.9133 30.0189 27.5814C29.3508 28.2495 28.4446 28.6248 27.4998 28.6248Z" fill="#8F1E18"/>
</svg>
