<svg width="25" height="25" viewBox="0 0 25 25" fill="none" xmlns="http://www.w3.org/2000/svg">
<path d="M8.96515 17.8043C8.7306 18.0389 8.41248 18.1706 8.08077 18.1706C7.74907 18.1706 7.43095 18.0389 7.1964 17.8043C6.96185 17.5697 6.83008 17.2516 6.83008 16.9199C6.83008 16.7557 6.86243 16.593 6.92528 16.4413C6.98813 16.2896 7.08026 16.1517 7.1964 16.0355L16.0351 7.19805C16.1512 7.08191 16.289 6.98977 16.4407 6.92688C16.5923 6.864 16.7549 6.8316 16.9191 6.83154C17.0833 6.83149 17.2459 6.86377 17.3976 6.92654C17.5493 6.98932 17.6871 7.08137 17.8033 7.19742C17.9194 7.31348 18.0116 7.45127 18.0744 7.60294C18.1373 7.7546 18.1697 7.91717 18.1698 8.08135C18.1698 8.24554 18.1376 8.40813 18.0748 8.55984C18.012 8.71155 17.92 8.84941 17.8039 8.96555L8.96515 17.803V17.8043Z" fill="#771100"/>
<path d="M7.1964 8.96515C6.96185 8.7306 6.83008 8.41248 6.83008 8.08077C6.83008 7.74907 6.96185 7.43095 7.1964 7.1964C7.43095 6.96185 7.74907 6.83008 8.08077 6.83008C8.41248 6.83008 8.7306 6.96185 8.96515 7.1964L17.8027 16.0351C17.9188 16.1512 18.0109 16.289 18.0738 16.4407C18.1367 16.5923 18.1691 16.7549 18.1692 16.9191C18.1692 17.0833 18.1369 17.2459 18.0742 17.3976C18.0114 17.5493 17.9193 17.6871 17.8033 17.8033C17.6872 17.9194 17.5494 18.0116 17.3978 18.0744C17.2461 18.1373 17.0835 18.1697 16.9193 18.1698C16.7552 18.1698 16.5926 18.1376 16.4409 18.0748C16.2891 18.012 16.1513 17.92 16.0352 17.8039L7.1964 8.96515Z" fill="#771100"/>
</svg>
