<svg width="14" height="15" viewBox="0 0 14 15" fill="none" xmlns="http://www.w3.org/2000/svg">
<path d="M0.235352 14.2049V11.0387L10.0694 1.2233C10.2184 1.08671 10.383 0.981172 10.5633 0.906672C10.7436 0.832172 10.9328 0.794922 11.131 0.794922C11.3296 0.794922 11.5221 0.832172 11.7084 0.906672C11.8946 0.981172 12.056 1.09292 12.1926 1.24192L13.217 2.28492C13.366 2.42151 13.4747 2.58292 13.5433 2.76917C13.6118 2.95542 13.6458 3.14167 13.6454 3.32792C13.6454 3.52659 13.6111 3.71607 13.5425 3.89636C13.474 4.07665 13.3655 4.24104 13.217 4.38955L3.4016 14.2049H0.235352ZM11.1124 4.37092L12.1554 3.32792L11.1124 2.28492L10.0694 3.32792L11.1124 4.37092Z" fill="#3F0D0B"/>
</svg>
