<svg xmlns="http://www.w3.org/2000/svg" width="69" height="69" viewBox="0 0 69 69" fill="none">
    <path d="M10.5324 59.3154C7.23734 56.1329 4.60906 52.326 2.80094 48.1169C0.992834 43.9078 0.0411093 39.3807 0.00130261 34.7998C-0.0385041 30.2189 0.834405 25.676 2.5691 21.436C4.30379 17.1961 6.86552 13.3441 10.1048 10.1048C13.3441 6.86552 17.1961 4.30379 21.436 2.5691C25.676 0.834405 30.2189 -0.0385041 34.7998 0.00130261C39.3807 0.0411093 43.9078 0.992834 48.1169 2.80094C52.326 4.60906 56.1329 7.23734 59.3154 10.5324C65.5999 17.0392 69.0773 25.754 68.9987 34.7998C68.9201 43.8456 65.2918 52.4986 58.8952 58.8952C52.4986 65.2918 43.8456 68.9201 34.7998 68.9987C25.754 69.0773 17.0392 65.5999 10.5324 59.3154ZM54.4509 54.4509C59.6298 49.2721 62.5393 42.248 62.5393 34.9239C62.5393 27.5999 59.6298 20.5758 54.4509 15.3969C49.2721 10.2181 42.248 7.30859 34.9239 7.30859C27.5999 7.30859 20.5758 10.2181 15.3969 15.3969C10.2181 20.5758 7.30859 27.5999 7.30859 34.9239C7.30859 42.248 10.2181 49.2721 15.3969 54.4509C20.5758 59.6298 27.5999 62.5393 34.9239 62.5393C42.248 62.5393 49.2721 59.6298 54.4509 54.4509ZM31.4739 17.6739H38.3739V38.3739H31.4739V17.6739ZM31.4739 45.2739H38.3739V52.1739H31.4739V45.2739Z" fill="#F19332"/>
</svg>