<svg width="25" height="25" viewBox="0 0 25 25" fill="none" xmlns="http://www.w3.org/2000/svg">
<g clip-path="url(#clip0_1367_321)">
<path d="M13.5 3.5H11.5V13.5H13.5V3.5ZM18.33 5.67L16.91 7.09C18.49 8.36 19.5 10.31 19.5 12.5C19.5 16.37 16.37 19.5 12.5 19.5C8.63 19.5 5.5 16.37 5.5 12.5C5.5 10.31 6.51 8.36 8.08 7.08L6.67 5.67C4.73 7.32 3.5 9.76 3.5 12.5C3.5 17.47 7.53 21.5 12.5 21.5C17.47 21.5 21.5 17.47 21.5 12.5C21.5 9.76 20.27 7.32 18.33 5.67Z" fill="#771100"/>
</g>
<defs>
<clipPath id="clip0_1367_321">
<rect width="24" height="24" fill="white" transform="translate(0.5 0.5)"/>
</clipPath>
</defs>
</svg>
