<svg width="81" height="81" viewBox="0 0 81 81" fill="none" xmlns="http://www.w3.org/2000/svg">
<path d="M14.7656 70.875L10.0406 66.15L44.6344 31.5563C43.6219 29.1938 43.4813 26.5219 44.2125 23.5406C44.9438 20.5594 46.5469 17.8875 49.0219 15.525C52.0031 12.5437 55.3219 10.8 58.9781 10.2937C62.6344 9.7875 65.6156 10.6875 67.9219 12.9937C70.2281 15.3 71.1281 18.2812 70.6219 21.9375C70.1156 25.5938 68.3719 28.9125 65.3906 31.8937C63.0281 34.3687 60.3563 35.9719 57.375 36.7031C54.3938 37.4344 51.7219 37.2938 49.3594 36.2812L45.1406 40.5L70.7906 66.15L66.0657 70.875L40.4156 45.3937L14.7656 70.875ZM24.7219 42.0187L14.5969 31.8937C11.5594 28.8562 10.0406 25.2281 10.0406 21.0094C10.0406 16.7906 11.5594 13.1625 14.5969 10.125L35.5219 31.2188L24.7219 42.0187Z" fill="#771100"/>
</svg>
