<svg width="33" height="34" viewBox="0 0 33 34" fill="none" xmlns="http://www.w3.org/2000/svg">
<path fill-rule="evenodd" clip-rule="evenodd" d="M23.3372 9.65047L9.62148 23.3662L11.0652 24.81L24.781 11.0942L23.3372 9.65047ZM19.2232 11.1766L16.6657 13.734C14.9742 13.734 13.603 15.1053 13.603 16.7967L10.057 20.3427C8.24334 18.6685 7.4776 16.7967 7.4776 16.7967C7.4776 16.7967 9.98343 10.6714 16.6657 10.6714C17.5503 10.6714 18.4089 10.8622 19.2232 11.1766ZM24.0241 14.6001C25.1701 15.7941 25.8537 16.7967 25.8537 16.7967C25.8537 16.7967 21.6773 22.9221 16.6657 22.9221C16.3485 22.9221 16.0408 22.9083 15.7423 22.882L24.0241 14.6001Z" fill="#868686"/>
</svg>
