<svg width="62" height="62" viewBox="0 0 62 62" fill="none" xmlns="http://www.w3.org/2000/svg">
<path d="M54.5083 32.2916L58.125 35.9341L41.2558 52.9583L32.2917 43.9166L35.9083 40.2741L41.2558 45.6475L54.5083 32.2916ZM25.8333 43.9166L33.5833 51.6666H7.75V46.5C7.75 40.7908 16.9983 36.1666 28.4167 36.1666L33.2992 36.4508L25.8333 43.9166ZM28.4167 10.3333C31.1572 10.3333 33.7856 11.422 35.7234 13.3599C37.6613 15.2978 38.75 17.9261 38.75 20.6666C38.75 23.4072 37.6613 26.0355 35.7234 27.9734C33.7856 29.9113 31.1572 31 28.4167 31C25.6761 31 23.0478 29.9113 21.1099 27.9734C19.172 26.0355 18.0833 23.4072 18.0833 20.6666C18.0833 17.9261 19.172 15.2978 21.1099 13.3599C23.0478 11.422 25.6761 10.3333 28.4167 10.3333Z" fill="#771100"/>
</svg>
