<svg width="19" height="18" viewBox="0 0 19 18" fill="none" xmlns="http://www.w3.org/2000/svg">
<path d="M17.6875 7.27867H16.9682C16.7955 5.40083 15.9274 3.65528 14.5342 2.38438C13.141 1.11348 11.3233 0.408936 9.4375 0.408936C7.55173 0.408936 5.73399 1.11348 4.34081 2.38438C2.94764 3.65528 2.07954 5.40083 1.9068 7.27867H1.1875C1.00516 7.27867 0.830295 7.35111 0.701364 7.48004C0.572433 7.60897 0.5 7.78384 0.5 7.96617C0.503021 9.60115 0.95297 11.2042 1.80119 12.6019C2.64941 13.9997 3.86361 15.1389 5.3125 15.8965V16.2162C5.3125 16.5808 5.45737 16.9306 5.71523 17.1884C5.97309 17.4463 6.32283 17.5912 6.6875 17.5912H12.1875C12.5522 17.5912 12.9019 17.4463 13.1598 17.1884C13.4176 16.9306 13.5625 16.5808 13.5625 16.2162V15.8965C15.0114 15.1389 16.2256 13.9997 17.0738 12.6019C17.922 11.2042 18.372 9.60115 18.375 7.96617C18.375 7.78384 18.3026 7.60897 18.1736 7.48004C18.0447 7.35111 17.8698 7.27867 17.6875 7.27867ZM13.3459 3.17344C13.5035 3.30235 13.6545 3.43841 13.7988 3.58164C11.9687 4.22545 10.4563 5.54858 9.575 7.27696H7.03984C7.46954 6.07248 8.26062 5.03004 9.30501 4.29204C10.3494 3.55404 11.5962 3.15649 12.875 3.15368C13.0323 3.15368 13.1895 3.16141 13.3459 3.17344ZM11.1666 7.27867C12.0001 6.02819 13.2611 5.12466 14.7132 4.7375C15.188 5.50978 15.4859 6.37761 15.5855 7.27867H11.1666ZM9.4375 1.77868C9.98919 1.77904 10.5383 1.85332 11.0703 1.99953C9.77475 2.32092 8.58679 2.97814 7.62617 3.90496C6.66556 4.83178 5.96623 5.99545 5.59867 7.27867H3.28953C3.46007 5.76691 4.18098 4.37078 5.31483 3.35644C6.44867 2.34209 7.91615 1.78048 9.4375 1.77868Z" fill="#3F0D0B"/>
</svg>
