<svg width="31" height="31" viewBox="0 0 31 31" fill="none" xmlns="http://www.w3.org/2000/svg">
<g clip-path="url(#clip0_3690_3867)">
<path d="M5.06112 14.2744C5.37971 14.2748 5.68616 14.3968 5.91783 14.6155C6.1495 14.8342 6.28891 15.1331 6.30758 15.4512C6.32625 15.7692 6.22277 16.0824 6.01828 16.3267C5.8138 16.571 5.52374 16.728 5.20737 16.7657L5.06112 16.7744H3.81112C3.49252 16.7741 3.18607 16.6521 2.9544 16.4334C2.72273 16.2146 2.58332 15.9157 2.56465 15.5977C2.54598 15.2796 2.64946 14.9664 2.85395 14.7221C3.05843 14.4778 3.3485 14.3208 3.66487 14.2832L3.81112 14.2744H5.06112ZM15.0611 3.02441C15.3673 3.02445 15.6628 3.13686 15.8916 3.34031C16.1204 3.54376 16.2665 3.8241 16.3024 4.12816L16.3111 4.27441V5.52441C16.3108 5.84301 16.1888 6.14945 15.9701 6.38112C15.7513 6.61279 15.4524 6.75221 15.1344 6.77088C14.8163 6.78955 14.5031 6.68607 14.2588 6.48158C14.0145 6.2771 13.8575 5.98703 13.8199 5.67066L13.8111 5.52441V4.27441C13.8111 3.94289 13.9428 3.62495 14.1772 3.39053C14.4117 3.15611 14.7296 3.02441 15.0611 3.02441ZM26.3111 14.2744C26.6297 14.2748 26.9362 14.3968 27.1678 14.6155C27.3995 14.8342 27.5389 15.1331 27.5576 15.4512C27.5763 15.7692 27.4728 16.0824 27.2683 16.3267C27.0638 16.571 26.7737 16.728 26.4574 16.7657L26.3111 16.7744H25.0611C24.7425 16.7741 24.4361 16.6521 24.2044 16.4334C23.9727 16.2146 23.8333 15.9157 23.8147 15.5977C23.796 15.2796 23.8995 14.9664 24.1039 14.7221C24.3084 14.4778 24.5985 14.3208 24.9149 14.2832L25.0611 14.2744H26.3111ZM6.17737 6.64066C6.39261 6.42544 6.67898 6.29615 6.98276 6.27705C7.28655 6.25795 7.58686 6.35035 7.82736 6.53691L7.94487 6.64066L8.81987 7.51566C9.04405 7.74061 9.17421 8.04246 9.1839 8.35989C9.19359 8.67733 9.0821 8.98656 8.87205 9.22476C8.66201 9.46297 8.36918 9.6123 8.05302 9.64241C7.73687 9.67253 7.4211 9.58118 7.16986 9.38691L7.05236 9.28316L6.17737 8.40816C5.94303 8.17375 5.81138 7.85587 5.81138 7.52441C5.81138 7.19296 5.94303 6.87507 6.17737 6.64066ZM22.1774 6.64066C22.4023 6.41648 22.7042 6.28632 23.0216 6.27663C23.339 6.26694 23.6483 6.37843 23.8865 6.58847C24.1247 6.79852 24.274 7.09135 24.3041 7.40751C24.3342 7.72366 24.2429 8.03942 24.0486 8.29066L23.9449 8.40816L23.0699 9.28316C22.8449 9.50735 22.5431 9.63751 22.2256 9.6472C21.9082 9.65689 21.599 9.5454 21.3608 9.33535C21.1226 9.12531 20.9732 8.83247 20.9431 8.51632C20.913 8.20017 21.0044 7.8844 21.1986 7.63316L21.3024 7.51566L22.1774 6.64066ZM17.5611 23.0244C17.8926 23.0244 18.2106 23.1561 18.445 23.3905C18.6794 23.625 18.8111 23.9429 18.8111 24.2744C18.8111 25.269 18.416 26.2228 17.7128 26.9261C17.0095 27.6293 16.0557 28.0244 15.0611 28.0244C14.0666 28.0244 13.1127 27.6293 12.4095 26.9261C11.7062 26.2228 11.3111 25.269 11.3111 24.2744C11.3112 23.9682 11.4236 23.6727 11.627 23.444C11.8305 23.2152 12.1108 23.069 12.4149 23.0332L12.5611 23.0244H17.5611ZM15.0611 8.02441C16.6352 8.02441 18.1695 8.51969 19.4464 9.4401C20.7234 10.3605 21.6785 11.6594 22.1762 13.1527C22.674 14.646 22.6893 16.2582 22.22 17.7607C21.7506 19.2632 20.8204 20.5799 19.5611 21.5244C19.3888 21.6538 19.186 21.7365 18.9724 21.7644L18.8111 21.7744H11.3111C11.0407 21.7744 10.7775 21.6867 10.5611 21.5244C9.30182 20.5799 8.37161 19.2632 7.90226 17.7607C7.43291 16.2582 7.44821 14.646 7.94599 13.1527C8.44377 11.6594 9.3988 10.3605 10.6758 9.4401C11.9528 8.51969 13.487 8.02441 15.0611 8.02441Z" fill="#771100"/>
</g>
<defs>
<clipPath id="clip0_3690_3867">
<rect width="30" height="30" fill="white" transform="translate(0.0610352 0.524414)"/>
</clipPath>
</defs>
</svg>
