<svg width="23" height="22" viewBox="0 0 23 22" fill="none" xmlns="http://www.w3.org/2000/svg">
<g clip-path="url(#clip0_1367_310)">
<path d="M11.5 4.125C12.3509 4.125 13.167 4.46302 13.7686 5.0647C14.3703 5.66638 14.7083 6.48243 14.7083 7.33333C14.7083 8.18424 14.3703 9.00029 13.7686 9.60197C13.167 10.2036 12.3509 10.5417 11.5 10.5417C10.6491 10.5417 9.83305 10.2036 9.23137 9.60197C8.62969 9.00029 8.29167 8.18424 8.29167 7.33333C8.29167 6.48243 8.62969 5.66638 9.23137 5.0647C9.83305 4.46302 10.6491 4.125 11.5 4.125ZM5.08333 6.41667C5.59667 6.41667 6.07333 6.55417 6.48583 6.80167C6.34833 8.1125 6.73333 9.41417 7.52167 10.4317C7.06333 11.3117 6.14667 11.9167 5.08333 11.9167C4.35399 11.9167 3.65451 11.6269 3.13879 11.1112C2.62306 10.5955 2.33333 9.89601 2.33333 9.16667C2.33333 8.43732 2.62306 7.73785 3.13879 7.22212C3.65451 6.7064 4.35399 6.41667 5.08333 6.41667ZM17.9167 6.41667C18.646 6.41667 19.3455 6.7064 19.8612 7.22212C20.3769 7.73785 20.6667 8.43732 20.6667 9.16667C20.6667 9.89601 20.3769 10.5955 19.8612 11.1112C19.3455 11.6269 18.646 11.9167 17.9167 11.9167C16.8533 11.9167 15.9367 11.3117 15.4783 10.4317C16.2776 9.39988 16.6485 8.09985 16.5142 6.80167C16.9267 6.55417 17.4033 6.41667 17.9167 6.41667ZM5.54167 15.8125C5.54167 13.915 8.20917 12.375 11.5 12.375C14.7908 12.375 17.4583 13.915 17.4583 15.8125V17.4167H5.54167V15.8125ZM0.5 17.4167V16.0417C0.5 14.7675 2.2325 13.695 4.57917 13.3833C4.03833 14.0067 3.70833 14.8683 3.70833 15.8125V17.4167H0.5ZM22.5 17.4167H19.2917V15.8125C19.2917 14.8683 18.9617 14.0067 18.4208 13.3833C20.7675 13.695 22.5 14.7675 22.5 16.0417V17.4167Z" fill="#771100"/>
</g>
<defs>
<clipPath id="clip0_1367_310">
<rect width="22" height="22" fill="white" transform="translate(0.5)"/>
</clipPath>
</defs>
</svg>
