<svg width="22" height="22" viewBox="0 0 22 22" fill="none" xmlns="http://www.w3.org/2000/svg">
<g clip-path="url(#clip0_1433_1452)">
<path d="M15.583 2.75C16.2845 2.74996 16.9594 3.01796 17.4697 3.49918C17.9801 3.98039 18.2873 4.63843 18.3284 5.33867L18.333 5.5V9.4875L18.8775 9.2455C19.4403 8.99525 20.0893 9.383 20.1608 9.977L20.1663 10.0833V17.4167C20.1665 17.8792 19.9918 18.3247 19.6773 18.6638C19.3628 19.003 18.9317 19.2107 18.4705 19.2454L18.333 19.25H3.66634C3.20381 19.2501 2.75832 19.0755 2.41917 18.761C2.08002 18.4465 1.87228 18.0154 1.83759 17.5542L1.83301 17.4167V10.0833C1.83301 9.46733 2.45176 9.03192 3.02192 9.20792L3.12276 9.2455L3.66634 9.4875V5.5C3.6663 4.79856 3.93431 4.12361 4.41552 3.61326C4.89673 3.10291 5.55477 2.79573 6.25501 2.75458L6.41634 2.75H15.583ZM15.583 4.58333H6.41634C6.17323 4.58333 5.94007 4.67991 5.76816 4.85182C5.59625 5.02373 5.49967 5.25688 5.49967 5.5V10.3024L10.9997 12.7472L16.4997 10.3024V5.5C16.4997 5.25688 16.4031 5.02373 16.2312 4.85182C16.0593 4.67991 15.8261 4.58333 15.583 4.58333ZM10.9997 7.33333C11.2333 7.33359 11.458 7.42306 11.6279 7.58344C11.7978 7.74383 11.9001 7.96304 11.9137 8.19628C11.9274 8.42952 11.8516 8.65918 11.7016 8.83835C11.5516 9.01751 11.3389 9.13266 11.1069 9.16025L10.9997 9.16667H9.16634C8.9327 9.16641 8.70798 9.07694 8.53809 8.91656C8.3682 8.75617 8.26596 8.53696 8.25227 8.30372C8.23857 8.07048 8.31446 7.84082 8.46442 7.66165C8.61437 7.48249 8.82709 7.36734 9.05909 7.33975L9.16634 7.33333H10.9997Z" fill="#3F0D0B"/>
</g>
<defs>
<clipPath id="clip0_1433_1452">
<rect width="22" height="22" fill="white"/>
</clipPath>
</defs>
</svg>
