<svg width="60" height="61" viewBox="0 0 60 61" fill="none" xmlns="http://www.w3.org/2000/svg">
<g id="mingcute:invite-fill" clip-path="url(#clip0_3107_2964)">
<g id="Group">
<path id="Vector" d="M42.5 7.62598C44.413 7.62587 46.2538 8.35679 47.6456 9.66919C49.0375 10.9816 49.8753 12.7762 49.9875 14.686L50 15.126V26.001L51.485 25.341C53.02 24.6585 54.79 25.716 54.985 27.336L55 27.626V47.626C55.0004 48.8874 54.524 50.1024 53.6663 51.0273C52.8085 51.9523 51.6329 52.5189 50.375 52.6135L50 52.626H10C8.73856 52.6264 7.52358 52.15 6.59863 51.2922C5.67368 50.4345 5.10711 49.2589 5.0125 48.001L5 47.626V27.626C5 25.946 6.6875 24.7585 8.2425 25.2385L8.5175 25.341L10 26.001V15.126C9.99989 13.2129 10.7308 11.3722 12.0432 9.98032C13.3556 8.58846 15.1503 7.75071 17.06 7.63848L17.5 7.62598H42.5ZM42.5 12.626H17.5C16.837 12.626 16.2011 12.8894 15.7322 13.3582C15.2634 13.8271 15 14.4629 15 15.126V28.2235L30 34.891L45 28.2235V15.126C45 14.4629 44.7366 13.8271 44.2678 13.3582C43.7989 12.8894 43.163 12.626 42.5 12.626ZM30 20.126C30.6372 20.1267 31.2501 20.3707 31.7134 20.8081C32.1768 21.2455 32.4556 21.8434 32.4929 22.4795C32.5303 23.1156 32.3233 23.7419 31.9143 24.2306C31.5054 24.7192 30.9252 25.0332 30.2925 25.1085L30 25.126H25C24.3628 25.1253 23.7499 24.8813 23.2866 24.4439C22.8232 24.0064 22.5444 23.4086 22.5071 22.7725C22.4697 22.1364 22.6767 21.51 23.0857 21.0214C23.4946 20.5328 24.0748 20.2187 24.7075 20.1435L25 20.126H30Z" fill="#771100"/>
</g>
</g>
<defs>
<clipPath id="clip0_3107_2964">
<rect width="60" height="60" fill="white" transform="translate(0 0.125977)"/>
</clipPath>
</defs>
</svg>
