<svg width="23" height="23" viewBox="0 0 23 23" fill="none" xmlns="http://www.w3.org/2000/svg">
<g id="material-symbols:menu-book">
<path id="Vector" d="M13.6667 9.57496V8.01663C14.1708 7.80274 14.6866 7.64232 15.214 7.53538C15.7414 7.42843 16.2951 7.37496 16.875 7.37496C17.2722 7.37496 17.6618 7.40552 18.0438 7.46663C18.4257 7.52774 18.8 7.60413 19.1667 7.6958V9.16246C18.8 9.02496 18.4294 8.92169 18.0548 8.85263C17.6801 8.78357 17.2869 8.74935 16.875 8.74996C16.2944 8.74996 15.7368 8.82268 15.2021 8.96813C14.6674 9.11357 14.1556 9.31585 13.6667 9.57496ZM13.6667 14.6166V13.0583C14.1708 12.8444 14.6866 12.684 15.214 12.577C15.7414 12.4701 16.2951 12.4166 16.875 12.4166C17.2722 12.4166 17.6618 12.4472 18.0438 12.5083C18.4257 12.5694 18.8 12.6458 19.1667 12.7375V14.2041C18.8 14.0666 18.4294 13.9634 18.0548 13.8943C17.6801 13.8252 17.2869 13.791 16.875 13.7916C16.2944 13.7916 15.7368 13.8604 15.2021 13.9979C14.6674 14.1354 14.1556 14.3416 13.6667 14.6166ZM13.6667 12.0958V10.5375C14.1708 10.3236 14.6866 10.1632 15.214 10.0562C15.7414 9.94927 16.2951 9.8958 16.875 9.8958C17.2722 9.8958 17.6618 9.92635 18.0438 9.98746C18.4257 10.0486 18.8 10.125 19.1667 10.2166V11.6833C18.8 11.5458 18.4294 11.4425 18.0548 11.3735C17.6801 11.3044 17.2869 11.2702 16.875 11.2708C16.2944 11.2708 15.7368 11.3435 15.2021 11.489C14.6674 11.6344 14.1556 11.8367 13.6667 12.0958ZM12.75 16.1291C13.4222 15.8083 14.0981 15.5675 14.7777 15.4068C15.4572 15.2461 16.1563 15.166 16.875 15.1666C17.425 15.1666 17.9637 15.2125 18.4911 15.3041C19.0185 15.3958 19.5492 15.5333 20.0833 15.7166V6.64163C19.5792 6.42774 19.0558 6.26732 18.5131 6.16038C17.9704 6.05343 17.4244 5.99996 16.875 5.99996C16.1569 5.99996 15.4465 6.09163 14.7438 6.27496C14.041 6.4583 13.3764 6.7333 12.75 7.09996V16.1291ZM11.8333 18.8333C11.1 18.2527 10.3056 17.802 9.45 17.4812C8.59444 17.1604 7.70833 17 6.79167 17C6.15 17 5.51964 17.084 4.90058 17.252C4.28153 17.4201 3.68967 17.6569 3.125 17.9625C2.80417 18.1305 2.49494 18.1229 2.19733 17.9395C1.89972 17.7562 1.75061 17.4889 1.75 17.1375V6.09163C1.75 5.92357 1.79217 5.76316 1.8765 5.61038C1.96083 5.4576 2.08672 5.34302 2.25417 5.26663C2.97222 4.91524 3.70953 4.64391 4.46608 4.45263C5.22264 4.26135 5.99783 4.16602 6.79167 4.16663C7.67778 4.16663 8.54494 4.28121 9.39317 4.51038C10.2414 4.73955 11.0548 5.0833 11.8333 5.54163C12.6125 5.0833 13.4262 4.73955 14.2744 4.51038C15.1226 4.28121 15.9895 4.16663 16.875 4.16663C17.6694 4.16663 18.4449 4.26227 19.2015 4.45355C19.9581 4.64482 20.6951 4.91585 21.4125 5.26663C21.5806 5.34302 21.7068 5.4576 21.7911 5.61038C21.8754 5.76316 21.9173 5.92357 21.9167 6.09163V17.1375C21.9167 17.4889 21.7679 17.7562 21.4703 17.9395C21.1726 18.1229 20.8631 18.1305 20.5417 17.9625C19.9764 17.6569 19.3845 17.4201 18.7661 17.252C18.1476 17.084 17.5173 17 16.875 17C15.9583 17 15.0722 17.1604 14.2167 17.4812C13.3611 17.802 12.5667 18.2527 11.8333 18.8333Z" fill="#3F0D0B"/>
</g>
</svg>
