<svg width="28" height="31" viewBox="0 0 28 31" fill="none" xmlns="http://www.w3.org/2000/svg">
<path id="Vector" d="M6.46154 15.5C6.17592 15.5 5.902 15.6135 5.70004 15.8154C5.49808 16.0174 5.38462 16.2913 5.38462 16.5769V21.9616C5.38462 22.2472 5.49808 22.5211 5.70004 22.7231C5.902 22.925 6.17592 23.0385 6.46154 23.0385C6.74716 23.0385 7.02108 22.925 7.22304 22.7231C7.425 22.5211 7.53846 22.2472 7.53846 21.9616V20.8846H8.07692C8.79097 20.8846 9.47577 20.601 9.98067 20.0961C10.4856 19.5912 10.7692 18.9064 10.7692 18.1923C10.7692 17.4783 10.4856 16.7935 9.98067 16.2886C9.47577 15.7837 8.79097 15.5 8.07692 15.5H6.46154ZM8.07692 18.7308H7.53846V17.6539H8.07692C8.21973 17.6539 8.35669 17.7106 8.45767 17.8116C8.55865 17.9126 8.61539 18.0495 8.61539 18.1923C8.61539 18.3351 8.55865 18.4721 8.45767 18.5731C8.35669 18.6741 8.21973 18.7308 8.07692 18.7308ZM11.8462 16.5769C11.8462 16.2913 11.9596 16.0174 12.1616 15.8154C12.3635 15.6135 12.6375 15.5 12.9231 15.5H13.4615C14.4612 15.5 15.4199 15.8971 16.1268 16.604C16.8337 17.3109 17.2308 18.2696 17.2308 19.2693C17.2308 20.2689 16.8337 21.2276 16.1268 21.9345C15.4199 22.6414 14.4612 23.0385 13.4615 23.0385H12.9231C12.6375 23.0385 12.3635 22.925 12.1616 22.7231C11.9596 22.5211 11.8462 22.2472 11.8462 21.9616V16.5769ZM14 20.7931C14.3155 20.6821 14.5888 20.4759 14.7822 20.2029C14.9755 19.93 15.0793 19.6037 15.0793 19.2693C15.0793 18.9348 14.9755 18.6085 14.7822 18.3356C14.5888 18.0626 14.3155 17.8564 14 17.7454V20.7931ZM18.3077 21.9616V16.5769C18.3077 16.2913 18.4212 16.0174 18.6231 15.8154C18.8251 15.6135 19.099 15.5 19.3846 15.5H22.6154C22.901 15.5 23.1749 15.6135 23.3769 15.8154C23.5788 16.0174 23.6923 16.2913 23.6923 16.5769C23.6923 16.8626 23.5788 17.1365 23.3769 17.3384C23.1749 17.5404 22.901 17.6539 22.6154 17.6539H20.4615V18.7308H22.6154C22.901 18.7308 23.1749 18.8442 23.3769 19.0462C23.5788 19.2482 23.6923 19.5221 23.6923 19.8077C23.6923 20.0933 23.5788 20.3673 23.3769 20.5692C23.1749 20.7712 22.901 20.8846 22.6154 20.8846H20.4615V21.9616C20.4615 22.2472 20.3481 22.5211 20.1461 22.7231C19.9442 22.925 19.6702 23.0385 19.3846 23.0385C19.099 23.0385 18.8251 22.925 18.6231 22.7231C18.4212 22.5211 18.3077 22.2472 18.3077 21.9616ZM15.0769 7.96156V0.423096H5.38462C4.52776 0.423096 3.706 0.763479 3.10012 1.36937C2.49423 1.97525 2.15385 2.79701 2.15385 3.65387V12.2692C1.58261 12.2692 1.03477 12.4962 0.630847 12.9001C0.226922 13.304 0 13.8519 0 14.4231V24.1154C0 24.6866 0.226922 25.2345 0.630847 25.6384C1.03477 26.0423 1.58261 26.2693 2.15385 26.2693V27.3462C2.15385 28.203 2.49423 29.0248 3.10012 29.6307C3.706 30.2366 4.52776 30.5769 5.38462 30.5769H22.6154C23.4722 30.5769 24.294 30.2366 24.8999 29.6307C25.5058 29.0248 25.8462 28.203 25.8462 27.3462V26.2693C26.4174 26.2693 26.9652 26.0423 27.3692 25.6384C27.7731 25.2345 28 24.6866 28 24.1154V14.4231C28 13.8519 27.7731 13.304 27.3692 12.9001C26.9652 12.4962 26.4174 12.2692 25.8462 12.2692V11.1923H18.3077C17.4508 11.1923 16.6291 10.8519 16.0232 10.2461C15.4173 9.64017 15.0769 8.81841 15.0769 7.96156ZM25.8462 14.4231V24.1154H2.15385V14.4231H25.8462ZM17.2308 7.96156V0.549096C17.757 0.700238 18.2361 0.982613 18.6232 1.36971L24.8995 7.64602C25.2866 8.03315 25.569 8.5123 25.7202 9.03848H18.3077C18.0221 9.03848 17.7482 8.92502 17.5462 8.72306C17.3442 8.5211 17.2308 8.24718 17.2308 7.96156Z" fill="url(#paint0_linear_809_6659)"/>
<defs>
<linearGradient id="paint0_linear_809_6659" x1="1.56743" y1="5.25408" x2="8.46841" y2="35.1429" gradientUnits="userSpaceOnUse">
<stop stop-color="#B3261E"/>
<stop offset="0.567708" stop-color="#7E1B15"/>
<stop offset="1" stop-color="#3F0D0B"/>
</linearGradient>
</defs>
</svg>
