<svg width="104" height="104" viewBox="0 0 104 104" fill="none" xmlns="http://www.w3.org/2000/svg">
<g id="mdi:account-pending" clip-path="url(#clip0_2511_2024)">
<path id="Vector" d="M46.1207 61.0126C47.7547 57.4221 50.0799 54.1887 52.9637 51.497C55.8475 48.8054 59.2333 46.7082 62.9277 45.3253C66.6221 43.9424 70.5528 43.3008 74.4952 43.4373C78.4376 43.5737 82.3145 44.4855 85.9045 46.1205C89.495 47.7544 92.7284 50.0797 95.42 52.9635C98.1117 55.8472 100.209 59.233 101.592 62.9275C102.975 66.6219 103.616 70.5525 103.48 74.495C103.343 78.4374 102.432 82.3143 100.797 85.9042C98.4171 91.1575 94.5717 95.6122 89.7224 98.7335C84.873 101.855 79.2257 103.51 73.4587 103.5C61.8712 103.5 51.2707 96.8051 46.2924 86.3334H4.79199V77.7501C5.04949 72.8576 8.39699 68.8663 14.8345 65.6476C21.272 62.4288 29.3403 60.7551 39.1253 60.5834C41.5716 60.5834 43.8891 60.798 46.1207 61.0126ZM39.1253 17.6667C43.932 17.7955 47.9662 19.4692 51.1849 22.688C54.4037 25.9067 55.9916 29.9409 55.9916 34.8334C55.9916 39.7259 54.4037 43.7601 51.1849 46.9788C47.9662 50.1976 43.932 51.7855 39.1253 51.7855C34.3187 51.7855 30.2845 50.1976 27.0657 46.9788C23.847 43.7601 22.2591 39.7259 22.2591 34.8334C22.2591 29.9409 23.847 25.9067 27.0657 22.688C30.2845 19.4692 34.3187 17.7955 39.1253 17.6667ZM73.4587 94.9167C79.1498 94.9167 84.6078 92.656 88.632 88.6317C92.6562 84.6075 94.917 79.1495 94.917 73.4584C94.917 67.7673 92.6562 62.3093 88.632 58.2851C84.6078 54.2609 79.1498 52.0001 73.4587 52.0001C67.7676 52.0001 62.3095 54.2609 58.2853 58.2851C54.2611 62.3093 52.0003 67.7673 52.0003 73.4584C52.0003 79.1495 54.2611 84.6075 58.2853 88.6317C62.3095 92.656 67.7676 94.9167 73.4587 94.9167ZM69.167 60.5834H75.6045V72.6859L86.0762 78.7372L82.8574 84.3163L69.167 76.4197V60.5834Z" fill="#D87B2E"/>
</g>
<defs>
<clipPath id="clip0_2511_2024">
<rect width="103" height="103" fill="white" transform="translate(0.5 0.5)"/>
</clipPath>
</defs>
</svg>
