<svg width="56" height="59" viewBox="0 0 56 59" fill="none" xmlns="http://www.w3.org/2000/svg">
<path d="M12.5832 43.307C12.5832 45.0028 11.1957 46.3903 9.49988 46.3903C7.80404 46.3903 6.41654 45.0028 6.41654 43.307C6.41654 41.6111 7.80404 40.2236 9.49988 40.2236C11.1957 40.2236 12.5832 41.6111 12.5832 43.307ZM18.7499 43.307C17.054 43.307 15.6665 44.6945 15.6665 46.3903C15.6665 48.0861 17.054 49.4736 18.7499 49.4736C20.4457 49.4736 21.8332 48.0861 21.8332 46.3903C21.8332 44.6945 20.4457 43.307 18.7499 43.307ZM3.33321 49.4736C1.63738 49.4736 0.249878 50.8611 0.249878 52.557C0.249878 54.2528 1.63738 55.6403 3.33321 55.6403C5.02904 55.6403 6.41654 54.2528 6.41654 52.557C6.41654 50.8611 5.02904 49.4736 3.33321 49.4736ZM12.5832 52.557C10.8874 52.557 9.49988 53.9445 9.49988 55.6403C9.49988 57.3361 10.8874 58.7236 12.5832 58.7236C14.279 58.7236 15.6665 57.3361 15.6665 55.6403C15.6665 53.9445 14.279 52.557 12.5832 52.557ZM38.2674 2.36029L21.2165 23.7278L32.1315 34.6428L53.5299 17.6228C56.3049 15.2795 56.5207 11.0553 53.9307 8.46529L47.4249 1.95945C44.8349 -0.630545 40.6107 -0.414711 38.2674 2.36029ZM16.869 32.5153L23.3749 38.9903C24.6082 40.2236 26.5815 40.2236 27.784 38.9903L29.9424 36.832L19.0582 25.917L16.869 28.1061C16.2909 28.6943 15.967 29.486 15.967 30.3107C15.967 31.1354 16.2909 31.9271 16.869 32.5153Z" fill="url(#paint0_linear_990_6104)"/>
<defs>
<linearGradient id="paint0_linear_990_6104" x1="3.35669" y1="9.5269" x2="16.5239" y2="67.7099" gradientUnits="userSpaceOnUse">
<stop stop-color="#B3261E"/>
<stop offset="0.567708" stop-color="#7E1B15"/>
<stop offset="1" stop-color="#3F0D0B"/>
</linearGradient>
</defs>
</svg>
