<svg width="65" height="69" viewBox="0 0 65 69" fill="none" xmlns="http://www.w3.org/2000/svg">
<path id="Vector" d="M46.8503 46.9304C48.9448 45.8035 51.3423 45.1621 53.8955 45.1621H53.9042C54.1638 45.1621 54.285 44.85 54.0946 44.6766C51.4393 42.2901 48.4061 40.3625 45.1192 38.9729C45.0846 38.9555 45.05 38.9469 45.0154 38.9295C50.3902 35.0201 53.8869 28.6662 53.8869 21.4975C53.8869 9.62186 44.297 0 32.4655 0C20.634 0 11.0528 9.62186 11.0528 21.4975C11.0528 28.6662 14.5494 35.0201 19.9329 38.9295C19.8983 38.9469 19.8637 38.9555 19.829 38.9729C15.9602 40.6112 12.4895 42.9603 9.50351 45.9595C6.53475 48.9275 4.17123 52.4458 2.54481 56.3182C0.944601 60.1103 0.0809814 64.1732 0.000216429 68.2892C-0.00209366 68.3817 0.0141089 68.4738 0.0478699 68.5599C0.0816309 68.646 0.132267 68.7246 0.196794 68.7908C0.261322 68.857 0.338435 68.9097 0.423591 68.9456C0.508746 68.9815 0.600221 69 0.692624 69H5.87703C6.2492 69 6.56078 68.6966 6.56944 68.3239C6.74254 61.6319 9.41696 55.3647 14.1513 50.6144C19.0414 45.6995 25.5501 42.995 32.4741 42.995C37.3816 42.995 42.09 44.3559 46.1492 46.9044C46.2535 46.97 46.3732 47.007 46.4962 47.0115C46.6193 47.0161 46.7414 46.9881 46.8503 46.9304ZM32.4741 36.407C28.5101 36.407 24.7798 34.8554 21.9669 32.0382C20.5829 30.6557 19.4857 29.0126 18.7385 27.2035C17.9913 25.3944 17.6089 23.4552 17.6133 21.4975C17.6133 17.5187 19.1626 13.774 21.9669 10.9568C24.7711 8.13957 28.5015 6.58794 32.4741 6.58794C36.4468 6.58794 40.1685 8.13957 42.9814 10.9568C44.3654 12.3393 45.4626 13.9824 46.2098 15.7915C46.957 17.6005 47.3394 19.5398 47.3349 21.4975C47.3349 25.4763 45.7857 29.221 42.9814 32.0382C40.1685 34.8554 36.4382 36.407 32.4741 36.407ZM64.3076 57.0377H43.5354C43.1545 57.0377 42.8429 57.3497 42.8429 57.7312V62.5854C42.8429 62.9668 43.1545 63.2789 43.5354 63.2789H64.3076C64.6884 63.2789 65 62.9668 65 62.5854V57.7312C65 57.3497 64.6884 57.0377 64.3076 57.0377Z" fill="#383F3B"/>
</svg>
