<svg width="23" height="23" viewBox="0 0 23 23" fill="none" xmlns="http://www.w3.org/2000/svg">
<g id="iconamoon:profile-fill">
<path id="Vector" fill-rule="evenodd" clip-rule="evenodd" d="M7.83333 6.91667C7.83333 5.94421 8.21964 5.01157 8.90728 4.32394C9.59491 3.63631 10.5275 3.25 11.5 3.25C12.4725 3.25 13.4051 3.63631 14.0927 4.32394C14.7804 5.01157 15.1667 5.94421 15.1667 6.91667C15.1667 7.88913 14.7804 8.82176 14.0927 9.50939C13.4051 10.197 12.4725 10.5833 11.5 10.5833C10.5275 10.5833 9.59491 10.197 8.90728 9.50939C8.21964 8.82176 7.83333 7.88913 7.83333 6.91667ZM7.83333 12.4167C6.61776 12.4167 5.45197 12.8996 4.59243 13.7591C3.73289 14.6186 3.25 15.7844 3.25 17C3.25 17.7293 3.53973 18.4288 4.05546 18.9445C4.57118 19.4603 5.27065 19.75 6 19.75H17C17.7293 19.75 18.4288 19.4603 18.9445 18.9445C19.4603 18.4288 19.75 17.7293 19.75 17C19.75 15.7844 19.2671 14.6186 18.4076 13.7591C17.548 12.8996 16.3822 12.4167 15.1667 12.4167H7.83333Z" fill="#3F0D0B"/>
</g>
</svg>
