<svg width="23" height="23" viewBox="0 0 23 23" fill="none" xmlns="http://www.w3.org/2000/svg">
<g id="material-symbols:restaurant-menu">
<path id="Vector" d="M4.17701 19.75L2.89368 18.4667L12.2895 9.07083C12.0145 8.42917 11.9763 7.70347 12.1749 6.89375C12.3735 6.08403 12.809 5.35833 13.4812 4.71667C14.2909 3.90694 15.1923 3.43333 16.1853 3.29583C17.1784 3.15833 17.9881 3.40278 18.6145 4.02917C19.2409 4.65556 19.4853 5.46528 19.3478 6.45833C19.2103 7.45139 18.7367 8.35278 17.927 9.1625C17.2853 9.83472 16.5596 10.2701 15.7499 10.4688C14.9402 10.6674 14.2145 10.6292 13.5728 10.3542L12.427 11.5L19.3937 18.4667L18.1103 19.75L11.1437 12.8292L4.17701 19.75ZM6.88118 11.9125L4.13118 9.1625C3.30618 8.3375 2.89368 7.35208 2.89368 6.20625C2.89368 5.06042 3.30618 4.075 4.13118 3.25L9.81451 8.97917L6.88118 11.9125Z" fill="#3F0D0B"/>
</g>
</svg>
