<svg width="64" height="55" viewBox="0 0 64 55" fill="none" xmlns="http://www.w3.org/2000/svg">
<path d="M58.0859 0.61853L58.0824 52.5734C59.0126 54.104 59.9749 54.6926 60.7819 54.6887C61.5826 54.6849 62.5347 54.0893 63.4467 52.6045L60.956 26.068L60.9269 25.7448L61.1263 25.4871C63.9885 21.8146 64.9887 15.4696 64.1722 10.1028C63.764 7.41934 62.9094 4.99051 61.7127 3.27351C60.7091 1.83362 59.512 0.915105 58.0862 0.61853H58.0859ZM7.75002 0.619071L7.74785 9.69299L6.05005 9.69082V0.619612H4.11637L4.11664 9.69123H2.4164V0.619612H0.446899V14.5735C0.446764 16.1168 1.28904 16.9726 2.61511 17.5017L3.16392 17.7209L3.15176 18.3116C2.88141 29.7434 2.61417 41.175 2.34584 52.6067C3.27044 54.1196 4.22018 54.6924 5.01096 54.6887C5.80173 54.6849 6.75067 54.097 7.6635 52.6026C7.35057 41.174 7.03764 29.745 6.72525 18.3162L6.70903 17.7215L7.2596 17.5044C8.65515 16.9493 9.56285 16.0074 9.56285 14.5743V0.619071H7.75002ZM32.4583 5.89037C26.6863 5.89037 21.1508 8.18327 17.0694 12.2647C12.988 16.3461 10.6951 21.8816 10.6951 27.6536C10.6951 33.4256 12.988 38.9611 17.0694 43.0425C21.1508 47.1239 26.6863 49.4168 32.4583 49.4168C38.2303 49.4168 43.7658 47.1239 47.8472 43.0425C51.9286 38.9611 54.2215 33.4256 54.2215 27.6536C54.2215 21.8816 51.9286 16.3461 47.8472 12.2647C43.7658 8.18327 38.2303 5.89037 32.4583 5.89037Z" fill="url(#paint0_linear_1094_5725)"/>
<defs>
<linearGradient id="paint0_linear_1094_5725" x1="4.0296" y1="9.28118" x2="13.93" y2="63.9399" gradientUnits="userSpaceOnUse">
<stop stop-color="#B3261E"/>
<stop offset="0.567708" stop-color="#7E1B15"/>
<stop offset="1" stop-color="#3F0D0B"/>
</linearGradient>
</defs>
</svg>
