<svg width="112" height="112" viewBox="0 0 112 112" fill="none" xmlns="http://www.w3.org/2000/svg">
<g clip-path="url(#clip0_414_2410)">
<path d="M87.525 74.3C83.5079 69.9475 78.633 66.474 73.2074 64.0983C67.7817 61.7226 61.923 60.4961 56 60.4961C50.077 60.4961 44.2183 61.7226 38.7926 64.0983C33.367 66.474 28.4921 69.9475 24.475 74.3C23.8548 74.9858 23.5079 75.8754 23.5 76.8V91.8C23.5131 92.7858 23.914 93.7269 24.6159 94.4194C25.3177 95.1118 26.264 95.5001 27.25 95.5H84.75C85.7446 95.5 86.6984 95.1049 87.4016 94.4016C88.1049 93.6984 88.5 92.7445 88.5 91.75V76.75C88.4801 75.8427 88.1339 74.9729 87.525 74.3Z" fill="#E7BCB9"/>
<path d="M56 55.5C65.665 55.5 73.5 47.665 73.5 38C73.5 28.335 65.665 20.5 56 20.5C46.335 20.5 38.5 28.335 38.5 38C38.5 47.665 46.335 55.5 56 55.5Z" fill="#E7BCB9"/>
</g>
<rect x="1" y="1" width="110" height="110" rx="24" stroke="#E7BCB9" stroke-width="2" stroke-dasharray="8 4"/>
<defs>
<clipPath id="clip0_414_2410">
<rect width="90" height="90" fill="white" transform="translate(11 13)"/>
</clipPath>
</defs>
</svg>
